<?xml version="1.0" standalone="no"?>
<!DOCTYPE svg PUBLIC "-//W3C//DTD SVG 20010904//EN"
 "http://www.w3.org/TR/2001/REC-SVG-20010904/DTD/svg10.dtd">
<svg version="1.0" xmlns="http://www.w3.org/2000/svg"
 width="512.000000pt" height="512.000000pt" viewBox="0 0 512.000000 512.000000"
 preserveAspectRatio="xMidYMid meet">
<metadata>
Created by potrace 1.11, written by Peter Selinger 2001-2013
</metadata>
<g transform="translate(0.000000,512.000000) scale(0.100000,-0.100000)"
fill="#000000" stroke="none">
<path d="M1150 4790 c0 -5 5 -10 11 -10 5 0 7 5 4 10 -3 6 -8 10 -11 10 -2 0
-4 -4 -4 -10z"/>
<path d="M5089 4775 c-6 -40 -4 -71 5 -77 17 -12 26 -9 26 7 0 8 -5 15 -11 15
-6 0 -9 9 -6 19 2 10 1 25 -4 32 -5 8 -9 10 -10 4z"/>
<path d="M5050 4751 c-14 -28 -12 -57 5 -71 10 -9 15 -9 15 -1 0 6 -4 11 -10
11 -9 0 -6 52 5 70 3 5 4 10 1 10 -3 0 -10 -9 -16 -19z"/>
<path d="M1100 4680 c-22 -22 -25 -36 -10 -45 6 -3 6 -15 0 -29 -5 -13 -7 -26
-5 -28 3 -2 7 -38 11 -80 4 -58 2 -84 -10 -110 -11 -24 -13 -43 -7 -68 5 -19
9 -29 10 -22 1 6 8 12 17 12 14 0 14 -3 4 -15 -10 -12 -10 -15 1 -15 11 0 11
-2 0 -9 -8 -5 -15 -19 -16 -31 -1 -17 2 -20 19 -16 12 3 29 6 39 6 10 0 17 8
17 19 0 13 9 20 30 25 27 5 30 9 30 46 0 22 4 40 9 40 9 0 4 -76 -9 -127 -5
-18 -6 -42 -3 -53 3 -12 -2 -29 -12 -40 -16 -18 -16 -19 4 -17 13 1 20 6 17
14 -3 7 1 13 8 13 24 0 6 -40 -18 -41 -11 -1 -28 -2 -36 -3 -16 -1 -28 -66
-12 -66 5 0 9 -6 10 -12 0 -7 2 -22 5 -33 2 -11 2 -14 0 -7 -3 10 -13 11 -31
6 -15 -4 -35 -6 -44 -6 -23 1 -41 -24 -35 -48 5 -20 -14 -30 -55 -28 -22 2
-13 18 10 18 14 0 15 2 2 10 -12 7 -10 13 13 34 15 14 27 34 27 45 0 11 8 28
18 38 21 21 48 84 56 132 6 33 6 33 -26 27 -18 -4 -35 -11 -36 -16 -2 -6 -8
-8 -13 -5 -5 4 -40 -21 -79 -54 -39 -34 -75 -61 -80 -61 -5 0 -12 -9 -15 -20
-5 -16 -12 -19 -27 -14 -15 4 -18 3 -13 -6 5 -8 3 -11 -6 -8 -8 3 -40 -8 -71
-24 -32 -15 -58 -27 -58 -24 0 2 30 21 66 42 82 48 70 56 -17 11 -35 -19 -84
-37 -109 -40 -38 -5 -41 -4 -20 4 14 6 46 20 72 32 26 11 54 20 62 20 9 0 17
6 20 14 7 16 -29 10 -89 -17 -47 -20 -117 -36 -196 -45 l-56 -6 -11 38 c-8 28
-9 57 -1 105 8 50 7 72 -2 89 -11 21 -13 21 -24 6 -7 -9 -17 -17 -22 -17 -6 0
-16 -7 -23 -15 -7 -8 -21 -15 -31 -15 -11 0 -19 -5 -19 -10 0 -7 -13 -8 -36
-4 -27 5 -35 4 -30 -5 4 -6 1 -11 -6 -11 -26 0 -18 -47 16 -94 23 -33 32 -54
28 -72 -4 -24 -7 -25 -46 -18 -22 4 -53 6 -68 6 -25 -1 -26 2 -21 32 3 20 1
36 -6 40 -6 4 -11 25 -11 47 0 26 -4 39 -14 39 -9 0 -13 -15 -13 -55 0 -30 3
-52 7 -50 16 10 18 -24 2 -37 -13 -11 -14 -11 -7 1 6 11 2 13 -19 9 -15 -3
-24 -3 -21 0 2 3 0 11 -5 18 -6 6 -12 42 -13 78 -1 45 -6 66 -14 66 -7 0 -13
4 -13 9 0 5 -8 18 -18 27 -16 16 -16 17 0 11 18 -6 35 24 24 42 -3 5 1 14 9
21 20 17 19 30 -2 31 -11 0 -13 3 -5 6 6 2 12 9 12 15 0 6 -6 8 -13 5 -9 -3
-12 5 -9 29 3 22 0 34 -8 34 -7 0 -10 -8 -7 -20 3 -11 -1 -27 -9 -34 -12 -12
-13 -133 -11 -767 1 -576 5 -753 14 -756 8 -3 11 3 8 16 -2 12 2 26 8 33 14
15 16 47 4 66 -5 7 -5 11 0 10 14 -4 63 33 63 48 0 8 7 14 15 14 8 0 15 -7 15
-16 0 -8 4 -12 10 -9 5 3 7 0 5 -7 -10 -26 19 -49 65 -53 26 -2 46 -8 48 -16
9 -29 24 -40 39 -28 16 14 15 14 35 -27 14 -30 14 -31 -11 -41 -38 -15 -218
-62 -271 -71 l-45 -8 -3 -188 c-2 -174 -1 -188 15 -182 16 6 16 6 0 -12 -16
-17 -17 -64 -16 -558 1 -296 4 -529 6 -516 5 27 23 29 23 2 0 -13 7 -20 20
-20 11 0 20 5 20 10 0 6 5 10 11 10 8 0 8 -5 -1 -15 -7 -8 -28 -15 -46 -15
l-34 0 0 -625 0 -625 173 0 c137 1 169 3 156 13 -17 13 -43 57 -34 57 3 0 21
-16 39 -35 l34 -35 234 0 c133 0 239 4 248 10 8 5 11 10 6 10 -5 0 -1 10 10
22 10 12 14 18 7 15 -6 -4 -15 -2 -19 5 -5 8 -10 6 -15 -8 -7 -18 -8 -18 -8 2
-1 11 5 28 12 36 17 23 67 13 67 -14 0 -12 -4 -17 -12 -12 -6 4 -8 3 -4 -4 3
-6 2 -22 -4 -36 -9 -24 -7 -26 15 -26 20 0 25 5 25 24 0 27 15 43 24 27 4 -5
2 -12 -4 -16 -5 -3 -10 -13 -10 -21 0 -12 41 -14 269 -14 148 0 276 3 285 6 9
3 16 12 16 18 0 7 11 23 25 36 13 12 22 27 18 33 -4 6 2 8 14 5 14 -4 23 2 31
22 7 15 19 27 27 27 18 0 18 -2 4 -28 -5 -11 -15 -16 -21 -13 -7 5 -9 2 -5 -9
4 -11 1 -15 -13 -12 -13 3 -17 -1 -13 -11 3 -7 10 -11 16 -7 6 3 7 1 3 -6 -6
-9 -11 -9 -21 -1 -8 7 -19 9 -25 5 -14 -9 -13 -26 3 -22 7 1 11 -7 10 -21 l-3
-22 1186 0 c937 0 1184 3 1178 13 -5 9 -4 9 7 0 8 -8 41 -13 85 -13 61 0 73 3
77 17 4 17 5 17 6 1 1 -16 15 -17 126 -17 91 1 123 4 118 13 -4 6 1 5 10 -3
14 -11 17 -11 17 0 0 10 2 11 8 2 9 -15 142 -15 161 1 11 8 13 8 8 -1 -6 -9
30 -12 150 -12 105 -1 153 3 143 9 -9 6 -10 10 -3 10 6 0 15 -5 18 -10 4 -7
56 -10 136 -9 l129 1 -1 389 c0 299 -3 388 -12 382 -21 -13 -36 -12 -30 3 3 8
10 14 15 14 6 0 7 8 4 18 -5 14 -4 14 9 -2 13 -17 14 143 14 1380 -1 769 -3
1391 -6 1382 -2 -10 -7 -18 -10 -18 -8 0 -32 33 -32 45 0 6 4 2 10 -8 11 -18
11 -18 24 1 18 25 20 219 2 241 -9 12 -9 13 0 7 10 -5 13 12 12 73 -1 63 -4
81 -15 81 -8 0 -14 -8 -14 -17 0 -13 -3 -14 -12 -5 -7 7 -17 12 -23 12 -14 0
-40 -45 -40 -69 0 -11 -7 -15 -23 -14 -15 2 -21 -1 -16 -8 5 -8 -1 -10 -20 -7
-20 4 -26 2 -24 -11 2 -11 -4 -16 -20 -15 -15 0 -21 -4 -18 -12 3 -8 0 -11
-10 -7 -7 3 -14 0 -14 -6 0 -19 -15 -12 -26 13 -10 22 -10 24 7 13 25 -15 62
17 53 46 -5 15 -3 19 8 15 16 -6 42 26 44 54 1 13 -2 14 -16 5 -10 -6 -16 -17
-13 -24 3 -7 1 -13 -5 -13 -16 0 -32 56 -19 69 8 8 4 16 -13 31 -13 11 -29 20
-37 20 -7 0 -13 4 -13 10 0 6 -9 6 -26 -1 -23 -8 -25 -8 -15 5 8 9 8 16 2 20
-6 4 -8 12 -5 19 5 13 -34 42 -44 33 -3 -3 3 -15 12 -25 18 -20 14 -42 -7 -40
-9 0 -9 2 0 5 7 3 9 12 6 20 -5 12 -8 13 -14 3 -5 -9 -10 -5 -14 13 -4 15 -16
35 -28 45 -20 18 -20 17 -13 -2 11 -28 17 -65 12 -65 -3 0 -17 11 -31 25 -24
25 -25 25 -25 5 0 -18 -3 -19 -20 -10 -17 9 -20 8 -20 -12 0 -18 2 -20 10 -8
5 8 12 11 16 7 4 -4 13 -2 21 4 10 9 13 8 13 -4 0 -8 -7 -17 -15 -20 -8 -4
-18 -20 -22 -38 -8 -29 -10 -31 -25 -16 -14 14 -17 14 -22 2 -5 -15 -1 -17 46
-19 14 -1 24 2 22 6 -3 4 5 8 18 8 18 0 23 6 23 24 0 13 -3 22 -7 19 -5 -2 -8
3 -8 11 0 10 6 13 15 10 10 -4 15 -20 15 -44 0 -22 5 -42 11 -46 8 -4 9 1 4
17 -7 23 -6 23 7 5 8 -10 20 -16 25 -13 6 4 13 1 16 -6 4 -11 -35 -15 -60 -7
-5 1 -12 2 -16 1 -5 -1 -6 4 -2 11 4 7 -5 0 -19 -15 -29 -32 -34 -57 -10 -57
8 0 12 -5 9 -11 -4 -6 -13 -8 -20 -5 -21 8 -26 -23 -6 -33 10 -6 21 -7 25 -4
3 3 6 1 6 -5 0 -7 -7 -12 -15 -12 -21 0 -19 -30 3 -31 9 -1 21 -1 25 0 5 1 6
-3 3 -8 -3 -5 1 -14 9 -21 9 -7 15 -20 14 -29 -2 -28 1 -41 11 -41 5 0 7 7 4
15 -10 25 12 17 24 -10 10 -21 9 -23 -6 -18 -9 3 -14 3 -10 -1 3 -4 -3 -17
-14 -28 -11 -11 -17 -23 -13 -26 3 -4 10 0 15 8 8 13 10 12 10 -2 0 -10 -5
-18 -11 -18 -7 0 -9 -9 -6 -23 4 -12 2 -29 -3 -37 -8 -12 -10 -11 -8 5 3 46
-1 58 -17 45 -10 -9 -15 -9 -15 -1 0 6 5 11 10 11 6 0 10 5 10 11 0 6 -9 8
-21 4 -16 -6 -20 -4 -13 6 10 18 13 49 3 43 -4 -2 -10 0 -14 6 -4 7 -13 6 -27
-1 -18 -10 -20 -9 -15 6 7 17 -16 49 -27 38 -3 -4 -6 -1 -6 5 0 7 -4 12 -10
12 -5 0 -7 -7 -4 -15 4 -8 1 -15 -5 -15 -6 0 -11 9 -11 20 0 16 -5 19 -30 14
-27 -6 -30 -4 -30 19 0 20 -4 25 -16 20 -8 -3 -13 -12 -10 -19 3 -8 1 -14 -4
-14 -6 0 -11 12 -11 28 -1 15 -3 20 -6 11 -2 -11 -12 -15 -27 -12 -14 3 -28
-2 -37 -14 -13 -16 -13 -17 4 -4 15 12 17 11 17 -2 0 -10 6 -14 14 -11 8 3 16
-4 20 -18 5 -19 8 -20 16 -8 8 13 10 12 10 -3 0 -10 4 -16 8 -13 4 2 14 0 22
-5 13 -9 13 -10 0 -8 -31 3 -37 -2 -33 -25 3 -13 1 -26 -5 -30 -17 -10 -1 -56
19 -56 11 0 18 -3 18 -7 -3 -18 1 -36 7 -30 4 3 13 -1 22 -10 14 -14 17 -14
23 3 7 17 8 17 8 2 1 -29 19 -20 26 12 4 17 11 28 15 25 5 -3 6 -13 3 -22 -4
-10 -2 -14 4 -10 6 4 17 -1 24 -10 12 -15 12 -16 -4 -10 -25 9 -68 -20 -60
-40 4 -11 2 -14 -5 -9 -7 4 -12 1 -12 -6 0 -9 11 -14 30 -13 21 0 29 4 25 13
-3 7 0 10 5 7 6 -3 10 -13 10 -21 0 -8 4 -14 9 -14 5 0 12 -8 14 -17 4 -15 5
-15 6 2 1 11 6 27 11 35 7 11 9 7 7 -15 -1 -21 3 -30 13 -30 19 0 24 -24 11
-56 l-10 -24 0 24 c-1 24 -2 24 -15 6 -8 -11 -12 -23 -9 -28 2 -4 1 -7 -4 -6
-18 3 -33 -2 -33 -11 0 -5 8 -7 18 -3 14 5 15 4 4 -8 -11 -12 -15 -11 -28 5
-13 18 -14 18 -14 2 0 -9 -4 -14 -10 -11 -6 4 -7 -1 -3 -11 5 -13 3 -16 -10
-11 -9 3 -17 2 -17 -3 0 -6 7 -10 15 -10 8 0 15 -4 15 -9 0 -6 -9 -8 -20 -6
-11 2 -20 0 -20 -5 0 -6 -10 -9 -22 -7 -17 1 -22 -3 -20 -15 2 -12 -8 -7 -31
15 -19 18 -32 38 -29 45 6 16 -34 16 -42 0 -3 -7 -4 -1 -2 14 1 15 -1 25 -5
22 -8 -5 -13 10 -10 29 1 5 -3 6 -9 2 -9 -5 -14 7 -11 27 0 4 -5 5 -12 2 -8
-3 -13 -20 -13 -45 1 -35 2 -38 15 -22 13 17 13 17 6 -2 -4 -11 -8 -26 -8 -33
0 -9 -4 -9 -11 -2 -15 15 -24 12 -29 -7 -4 -17 -5 -17 -6 0 -1 20 -17 23 -24
5 -3 -7 -6 -2 -7 12 l-2 25 -8 -25 c-5 -16 -8 -19 -9 -8 -1 9 -6 20 -12 24 -8
4 -9 -1 -5 -17 6 -21 5 -21 -9 4 -9 15 -24 27 -35 27 -11 0 -20 5 -20 11 0 5
4 8 9 5 13 -8 4 45 -10 58 -9 8 -10 7 -3 -4 4 -8 -6 -4 -23 10 -19 16 -27 29
-22 36 10 12 -19 13 -39 0 -19 -12 -15 42 6 69 14 17 22 21 35 14 21 -12 42
22 25 39 -7 7 -8 15 -4 19 4 4 11 1 17 -7 15 -24 41 17 37 58 -2 17 1 32 6 32
6 0 -1 8 -14 17 -14 10 -28 18 -32 18 -20 0 -15 13 6 17 14 3 25 2 24 -1 -2
-20 4 -31 18 -31 9 0 12 5 8 12 -4 7 -3 8 4 4 6 -4 9 -14 6 -24 -5 -14 -3 -14
10 2 8 10 12 24 9 30 -4 6 1 5 10 -3 14 -11 17 -11 17 1 0 8 -6 20 -12 27 -10
10 -10 15 -1 18 8 3 9 12 3 27 -6 17 -5 23 5 23 8 0 11 -5 8 -11 -3 -6 -3 -8
2 -4 12 12 16 66 5 73 -6 3 -10 12 -10 18 0 8 3 7 9 -2 7 -10 12 -11 27 -1 16
10 16 11 2 6 -12 -3 -18 0 -18 10 0 8 3 13 8 11 4 -3 8 15 10 39 2 26 -2 44
-8 44 -5 0 -10 -4 -10 -8 0 -5 -12 -14 -26 -21 -33 -15 -53 0 -55 38 -1 17 -3
20 -6 8 -2 -9 -22 -26 -44 -37 -21 -11 -39 -26 -39 -33 0 -7 -9 -13 -20 -14
-11 -1 -18 2 -15 7 3 5 -3 13 -12 19 -23 13 -8 14 17 1 15 -8 17 -6 13 11 -3
11 -11 23 -18 26 -8 3 -12 22 -11 56 1 48 4 52 24 49 26 -4 30 19 7 42 -18 18
-19 33 -3 38 6 2 8 10 4 17 -6 9 -11 9 -22 0 -7 -6 -11 -16 -7 -22 3 -6 1 -7
-5 -3 -16 10 -15 43 1 49 9 3 9 9 -1 26 -7 11 -9 21 -5 21 5 0 6 23 4 51 -1
28 2 56 7 61 12 12 5 38 -10 38 -5 0 -6 -5 -3 -10 8 -13 -14 -82 -29 -92 -6
-4 -11 -15 -11 -25 0 -10 -6 -17 -13 -15 -10 2 -10 -2 0 -19 11 -17 10 -22 -5
-34 -12 -9 -14 -14 -6 -17 8 -3 10 -11 5 -24 -7 -17 -9 -17 -22 9 -8 15 -12
32 -9 37 3 6 2 10 -4 10 -6 0 -8 7 -5 15 4 10 0 15 -15 15 -12 0 -24 1 -28 3
-14 4 -19 -58 -6 -71 7 -8 10 -19 6 -25 -5 -8 -9 -6 -11 6 -2 9 -8 17 -13 17
-5 0 -1 -17 10 -38 17 -33 20 -89 7 -111 -5 -8 55 -47 67 -43 4 1 7 -3 7 -9 0
-6 9 -8 21 -4 l22 7 -21 -22 c-18 -19 -24 -21 -37 -10 -12 10 -15 10 -15 -4 0
-20 28 -20 54 -1 27 20 35 19 29 -6 -4 -16 -8 -17 -14 -7 -5 7 -9 9 -10 3 -4
-32 -3 -41 5 -53 7 -9 -1 -11 -35 -7 -24 3 -45 8 -48 10 -2 3 -10 -3 -17 -13
-7 -9 -18 -17 -26 -17 -7 0 -12 -9 -11 -20 2 -20 1 -20 -14 0 -15 20 -15 20
-10 -3 4 -17 2 -21 -7 -13 -8 7 -15 4 -24 -10 -7 -11 -17 -17 -22 -14 -6 3
-10 -1 -10 -9 0 -9 -5 -16 -11 -16 -5 0 -8 -4 -4 -9 3 -5 -1 -15 -8 -23 -8 -7
-12 -19 -9 -26 2 -6 -1 -12 -7 -12 -6 0 -10 3 -9 8 3 15 -16 46 -45 73 -17 16
-31 29 -33 29 -7 0 11 -48 24 -63 15 -16 14 -18 -6 -24 -21 -5 -21 -6 -5 -19
17 -14 17 -14 -2 -12 -12 2 -19 -2 -17 -10 1 -6 -4 -11 -10 -10 -8 2 -13 -8
-13 -27 0 -19 -5 -29 -13 -27 -10 2 -10 -2 -2 -18 7 -13 7 -20 0 -20 -18 0
-25 -2 -43 -11 -16 -9 -14 -13 18 -43 31 -29 34 -37 26 -59 -5 -14 -7 -28 -3
-33 4 -4 0 -3 -8 2 -24 14 -40 13 -40 -2 0 -8 4 -14 9 -14 13 0 -11 -60 -24
-60 -5 -1 1 -7 15 -15 18 -10 27 -10 32 -2 4 6 10 9 13 5 9 -8 -25 -59 -35
-53 -5 3 -6 -4 -3 -16 5 -19 3 -20 -14 -11 -15 8 -21 7 -31 -8 -10 -16 -8 -20
8 -25 11 -4 17 -11 14 -17 -4 -7 -2 -8 5 -4 6 4 9 12 6 17 -4 5 -1 9 4 9 6 0
11 -5 11 -11 0 -5 5 -7 10 -4 6 4 1 -17 -10 -45 -22 -57 -23 -60 -12 -59 44 7
42 -31 -3 -74 -34 -32 -34 -33 -15 -50 11 -9 20 -12 20 -7 0 6 7 10 16 10 14
0 14 -2 0 -22 -9 -12 -16 -35 -16 -50 0 -21 -7 -31 -24 -38 -13 -5 -27 -14
-32 -21 -5 -8 -3 -10 5 -4 7 4 1 -10 -12 -32 -18 -28 -22 -44 -16 -55 10 -18
-3 -62 -21 -73 -8 -5 -9 -10 -2 -14 7 -4 5 -13 -5 -26 -15 -20 -15 -20 -13 0
4 35 0 46 -11 39 -6 -3 -9 -14 -6 -24 3 -13 0 -17 -9 -13 -10 4 -14 -3 -14
-23 0 -23 2 -26 10 -14 5 8 10 10 10 4 0 -6 -3 -14 -7 -18 -8 -8 -10 -13 -12
-45 0 -11 -10 -23 -21 -26 -23 -7 -26 -21 -6 -28 11 -4 14 -1 10 11 -2 9 1 7
7 -6 13 -25 35 -24 33 1 -1 9 4 13 12 10 8 -3 12 -9 9 -13 -3 -5 -1 -11 5 -15
16 -10 12 -25 -5 -19 -16 7 -18 0 -6 -31 13 -32 -43 -69 -61 -41 -5 6 -8 3 -8
-9 0 -12 -6 -27 -12 -34 -11 -11 -10 -13 5 -8 9 4 17 3 18 -1 0 -4 2 -14 4
-24 2 -11 -6 -17 -26 -20 -15 -3 -26 -1 -23 3 7 12 -12 20 -30 13 -9 -3 -16
-13 -16 -22 0 -8 3 -13 6 -9 16 16 30 -19 24 -59 -4 -24 -3 -41 1 -38 5 3 11
-7 15 -21 3 -14 13 -25 22 -25 12 0 13 -3 5 -11 -7 -7 -9 -26 -6 -46 4 -22 1
-38 -6 -43 -10 -5 -9 -11 2 -22 13 -12 13 -19 1 -47 -18 -43 -18 -46 7 -48 12
-1 23 -4 26 -7 8 -7 -17 -46 -27 -43 -6 1 -16 -9 -23 -22 -19 -39 -36 -37 -32
3 4 37 -11 59 -21 32 -7 -18 -34 -22 -34 -6 0 6 -5 10 -11 10 -5 0 -8 -4 -5
-9 3 -5 -2 -8 -11 -7 -14 1 -16 -9 -14 -66 2 -71 1 -74 -29 -58 -16 9 -18 8
-13 -6 4 -11 3 -15 -5 -10 -6 3 -16 -3 -22 -14 -6 -11 -21 -20 -33 -20 -21 -1
-21 -2 6 -23 15 -13 27 -29 27 -36 0 -9 4 -10 13 -5 7 5 4 1 -6 -9 -19 -17
-20 -17 -34 0 -14 17 -14 17 -9 0 3 -10 -1 -25 -9 -33 -17 -18 -20 -34 -4 -34
5 0 8 4 5 8 -2 4 5 9 17 9 20 2 20 1 -5 -14 -34 -21 -43 -52 -20 -69 9 -8 13
-14 8 -14 -6 0 -2 -6 9 -13 11 -9 15 -19 10 -27 -6 -10 -11 -9 -22 5 -7 11
-13 14 -13 8 0 -7 5 -15 11 -18 6 -4 8 -14 5 -22 -4 -10 -1 -13 12 -9 9 3 23
2 30 -3 11 -7 11 -11 -2 -24 -9 -8 -16 -20 -16 -26 0 -6 -5 -11 -12 -11 -6 0
-9 -3 -5 -6 3 -3 2 -17 -3 -30 -5 -13 -6 -24 -2 -24 4 0 8 -9 8 -20 0 -13 -5
-19 -13 -16 -7 3 -13 1 -13 -5 0 -6 8 -9 18 -7 9 2 16 11 14 20 -1 9 2 19 8
23 5 3 10 1 10 -5 0 -6 5 -8 10 -5 6 3 10 1 10 -6 0 -7 3 -9 7 -6 3 4 -3 16
-14 27 -12 10 -24 16 -27 13 -3 -4 -6 -3 -6 0 0 14 37 43 48 39 7 -2 12 2 13
10 0 7 6 -3 13 -22 11 -29 11 -39 -1 -56 -12 -19 -12 -22 2 -28 9 -3 14 -2 11
2 -2 4 4 24 14 45 17 34 17 37 2 38 -11 0 -12 2 -4 6 6 2 10 8 7 13 -3 4 2 11
11 14 10 4 13 2 8 -7 -6 -9 -4 -9 8 1 13 10 17 10 22 -3 3 -8 3 -21 0 -28 -2
-7 3 -21 12 -32 8 -11 13 -14 9 -7 -7 14 11 17 20 2 4 -6 11 -7 17 -4 6 4 -2
16 -18 29 -26 21 -27 24 -14 41 14 18 14 18 -4 4 -18 -14 -18 -13 -11 10 4 14
7 39 7 57 -1 18 3 35 8 38 5 3 5 18 -1 37 -11 41 3 57 21 23 9 -17 21 -25 34
-23 13 2 21 -3 21 -12 1 -8 6 -14 12 -13 6 1 9 -7 7 -20 -4 -20 -4 -20 4 -2 5
11 6 34 1 52 -5 25 -3 33 6 33 8 0 17 -5 20 -10 4 -6 11 -8 16 -4 6 4 6 11 -2
20 -6 8 -8 21 -4 31 5 10 7 21 7 26 -3 9 10 9 27 -2 14 -9 7 -51 -10 -51 -6 0
-6 -8 1 -20 6 -11 7 -20 2 -20 -5 0 -14 -10 -19 -23 -8 -18 -8 -26 3 -33 9 -6
11 -14 5 -23 -8 -13 -12 -13 -28 -1 -15 12 -16 12 -5 0 18 -21 15 -32 -7 -25
-11 3 -22 1 -26 -4 -4 -7 1 -8 11 -4 13 5 15 3 9 -7 -6 -10 -3 -12 14 -7 18 4
20 3 10 -9 -8 -10 -8 -14 0 -14 18 0 13 -27 -6 -33 -10 -2 -27 -8 -37 -13 -14
-5 -17 -4 -12 4 5 8 2 10 -8 6 -11 -4 -14 -14 -9 -32 4 -19 3 -23 -7 -17 -9 5
-11 4 -6 -4 4 -6 11 -9 15 -6 5 2 16 -2 27 -9 17 -13 16 -16 -17 -49 -28 -28
-39 -33 -49 -24 -10 10 -11 5 -6 -23 5 -28 4 -31 -4 -12 -5 12 -17 22 -25 22
-9 0 -13 -5 -10 -10 4 -6 10 -8 15 -5 4 3 6 -4 3 -15 -3 -11 -10 -20 -15 -20
-5 0 -6 -5 -2 -12 4 -6 3 -8 -4 -4 -6 3 -13 2 -17 -4 -3 -5 -11 -10 -16 -10
-6 0 -7 4 -4 10 3 6 -1 7 -9 4 -9 -3 -16 -1 -16 5 0 6 -5 11 -10 11 -6 0 -8
-12 -5 -27 6 -24 4 -26 -7 -13 -7 9 -21 14 -30 12 -19 -4 -33 -36 -23 -52 10
-17 -12 -11 -26 7 -11 13 -11 17 -2 20 7 3 13 11 13 20 0 12 -3 12 -16 -2 -14
-13 -15 -21 -5 -43 10 -23 10 -25 -2 -10 -8 10 -17 15 -20 12 -3 -3 -3 4 0 16
6 22 6 22 -20 5 -15 -9 -24 -21 -21 -26 3 -5 1 -9 -4 -9 -11 0 -25 30 -17 38
3 3 5 0 5 -6 0 -9 5 -9 19 0 16 9 17 16 9 31 -9 17 -8 19 8 13 15 -6 17 -5 6
5 -10 11 -16 10 -30 -5 -9 -11 -11 -16 -4 -12 6 4 12 2 12 -5 0 -7 -11 -10
-31 -7 -20 3 -33 0 -36 -9 -9 -22 -25 -14 -18 10 4 15 3 18 -3 9 -7 -10 -11
-4 -16 22 -7 35 -19 46 -31 26 -3 -6 -1 -10 4 -10 6 0 11 -4 11 -10 0 -16 -18
-12 -40 10 -16 16 -20 17 -20 4 0 -8 -5 -12 -10 -9 -6 4 -8 11 -5 16 3 5 -1 6
-9 3 -11 -4 -14 1 -11 23 2 15 4 30 5 33 2 3 2 8 2 11 -1 4 6 6 16 5 12 -1 18
8 20 26 4 31 -4 34 -32 13 -19 -15 -24 -27 -29 -70 -1 -12 -9 -21 -18 -21 -11
0 -14 7 -11 23 2 13 0 23 -6 23 -6 0 -10 -17 -9 -37 3 -53 -26 -58 -43 -9 -6
20 -16 36 -21 36 -6 0 -7 -6 -3 -12 6 -10 3 -9 -8 0 -9 8 -15 19 -12 26 2 6
-4 21 -15 33 -11 11 -17 24 -14 27 6 6 -12 10 -29 7 -5 0 -8 4 -8 9 0 6 -5 10
-11 10 -6 0 -8 -7 -5 -16 3 -9 2 -12 -5 -9 -6 4 -8 13 -5 21 3 7 1 16 -4 19
-6 4 -10 0 -10 -7 0 -10 -2 -10 -9 1 -7 11 -12 10 -27 -8 -10 -11 -24 -21 -30
-21 -7 0 -15 -6 -17 -12 -8 -18 -27 10 -27 40 0 12 -4 22 -9 22 -5 0 -7 -8 -4
-19 3 -10 0 -22 -6 -25 -7 -4 -9 -1 -5 8 4 10 0 14 -14 13 -12 0 -20 -5 -19
-10 1 -5 -4 -12 -12 -15 -10 -3 -12 0 -8 12 4 9 2 16 -3 16 -19 0 -10 39 15
66 22 24 24 32 19 91 -4 57 -2 65 11 59 15 -5 75 29 83 47 2 4 8 5 13 1 5 -3
9 1 9 8 0 7 8 18 19 23 52 28 104 69 108 86 3 12 11 18 19 15 8 -3 14 0 14 7
0 7 14 21 30 32 19 13 30 29 30 43 0 16 5 22 17 20 11 -2 22 6 28 19 5 12 17
24 27 26 10 3 18 14 18 26 0 14 6 21 20 21 44 0 89 28 109 69 13 24 17 42 11
46 -6 3 -10 0 -10 -7 -1 -9 -3 -9 -9 2 -5 8 -12 48 -15 88 -3 40 -10 82 -17
93 -6 12 -8 37 -4 58 9 53 9 91 -1 101 -5 5 -22 10 -39 12 -34 3 -46 15 -37
36 4 13 7 12 14 -4 5 -12 7 -4 3 23 -3 23 -1 44 5 48 10 6 2 35 -10 35 -9 0
-40 -89 -41 -122 -1 -19 -3 -18 -9 7 l-8 30 -1 -27 c-1 -30 -10 -35 -29 -16
-9 9 -12 9 -12 0 0 -7 -5 -12 -11 -12 -12 0 -4 50 9 60 12 8 8 83 -4 87 -7 2
-14 -20 -18 -58 -4 -37 -15 -72 -26 -86 -18 -23 -19 -23 -25 -4 -3 12 -11 20
-18 18 -6 -1 -13 9 -15 23 -2 20 -1 22 7 10 8 -12 11 -6 11 22 0 20 4 39 10
43 13 8 1 35 -16 35 -9 0 -14 -11 -14 -29 0 -16 -7 -37 -16 -45 -10 -10 -13
-24 -9 -37 7 -21 5 -22 -31 -16 -22 3 -50 9 -63 13 -22 6 -23 5 -19 -19 4 -18
1 -24 -9 -20 -16 6 -17 2 8 57 11 26 27 50 34 52 8 3 21 17 30 31 15 22 15 26
1 42 -9 10 -16 25 -16 34 0 9 -7 18 -15 18 -38 3 -54 15 -85 61 -14 21 -28 38
-31 38 -18 0 -27 -32 -25 -90 2 -35 1 -72 -2 -82 -5 -22 -40 -24 -48 -4 -3 8
-11 12 -19 10 -20 -8 -280 97 -296 119 -3 5 -10 9 -15 9 -5 1 -25 11 -44 23
-19 12 -43 24 -52 28 -15 5 -16 11 -7 36 9 27 16 30 57 33 43 3 47 5 52 33 5
29 8 30 56 30 52 0 84 16 84 42 0 13 3 13 15 3 13 -11 15 -8 16 21 0 28 2 31
9 14 8 -19 9 -19 9 3 1 13 5 20 11 17 6 -4 10 9 11 32 0 30 2 34 9 18 7 -15 9
-10 9 24 1 42 2 43 16 25 13 -18 14 -16 15 25 0 42 1 43 15 25 13 -18 14 -15
15 30 0 39 3 46 13 37 20 -16 27 -4 27 45 0 33 4 43 20 47 15 4 20 14 20 36 0
18 5 31 13 31 22 1 71 91 71 129 -2 86 -11 168 -21 186 -8 15 -8 28 3 53 9 23
10 40 4 57 -11 28 -34 31 -90 15 -19 -6 -53 -13 -75 -16 -54 -7 -57 -14 -8
-14 36 0 40 -3 36 -19 -4 -16 -19 -21 -86 -28 -90 -9 -162 -4 -97 7 l35 6 -45
7 c-25 4 -56 8 -70 10 -16 1 -24 8 -21 17 2 8 3 25 3 37 0 13 17 37 39 57 40
36 51 66 23 66 -10 0 -14 6 -10 15 3 8 1 15 -5 15 -6 0 -8 4 -5 9 3 5 -1 11
-9 14 -10 4 -12 1 -8 -10 5 -13 3 -14 -16 -4 -12 7 -32 9 -44 6 -12 -4 -17 -3
-12 2 14 11 18 36 5 28 -5 -3 -13 0 -16 9 -3 8 -13 17 -22 21 -13 5 -14 3 -5
-6 6 -6 9 -18 5 -27 -4 -11 -1 -14 11 -9 16 6 16 4 0 -20 -22 -33 -26 -62 -12
-80 10 -11 8 -12 -16 -3 -26 10 -27 9 -23 -15 3 -14 3 -23 0 -21 -3 3 -10 -2
-17 -11 -11 -15 -14 -15 -45 1 -59 29 -68 15 -21 -32 35 -35 28 -58 -12 -43
-15 6 -33 8 -40 5 -19 -7 -72 19 -72 35 0 15 -35 36 -75 45 -3 1 -21 16 -40
34 -19 17 -38 32 -43 32 -9 0 -37 25 -37 34 0 12 18 5 42 -16 51 -46 67 -57
72 -49 3 5 -10 22 -29 40 -19 17 -35 36 -35 41 0 5 -11 9 -24 8 -28 -3 -129
71 -122 88 3 8 -5 11 -23 8 -37 -6 -81 11 -81 31 0 15 2 15 17 0 15 -15 17
-15 25 -1 5 9 13 14 19 11 16 -10 10 1 -16 29 -13 14 -28 26 -34 26 -5 0 -8
17 -6 38 4 40 -14 104 -27 96 -4 -3 -5 2 -2 10 4 10 1 16 -10 16 -9 0 -20 -16
-28 -42 -12 -42 -12 -42 -16 -13 -2 16 1 31 8 33 8 3 7 9 -2 20 -10 12 -10 14
0 8 6 -4 12 -3 12 1 0 5 -10 13 -22 18 -16 7 -22 18 -21 33 2 12 -1 22 -5 22
-11 0 -12 69 -1 76 5 3 9 -11 9 -30 0 -72 17 -42 28 49 16 123 16 119 -14 154
-23 28 -32 31 -80 31 -41 0 -59 -5 -74 -20z m167 -492 c-3 -8 -6 -5 -6 6 -1
11 2 17 5 13 3 -3 4 -12 1 -19z m-20 -10 c-3 -8 -6 -5 -6 6 -1 11 2 17 5 13 3
-3 4 -12 1 -19z m80 6 c-3 -3 -12 -4 -19 -1 -8 3 -5 6 6 6 11 1 17 -2 13 -5z
m2783 -35 c0 -5 -5 -9 -11 -9 -5 0 -7 5 -4 10 3 6 2 10 -3 10 -6 0 -12 -7 -16
-15 -3 -8 -13 -15 -21 -15 -9 0 -13 5 -10 10 8 12 8 12 -35 0 l-35 -10 24 19
c13 10 33 16 46 13 12 -2 26 1 30 8 7 12 35 -4 35 -21z m-2988 -21 l-22 -22 0
21 c0 12 7 23 18 25 27 6 28 -1 4 -24z m169 5 c12 -14 12 -16 0 -8 -11 6 -13
4 -8 -8 3 -10 2 -17 -3 -17 -6 0 -10 11 -10 25 0 30 3 31 21 8z m-1248 1 c9
-9 -4 -35 -14 -28 -5 3 -9 12 -9 20 0 14 12 19 23 8z m3986 -26 c-7 -13 -10
-24 -8 -25 2 -1 1 -5 -3 -9 -9 -9 -10 3 -2 34 4 12 10 22 16 22 5 0 3 -10 -3
-22z m35 4 c3 -5 -1 -9 -9 -9 -8 0 -12 4 -9 9 3 4 7 8 9 8 2 0 6 -4 9 -8z
m-2984 -20 c0 -4 -9 -13 -20 -20 -23 -14 -26 -8 -7 13 13 16 27 19 27 7z m160
-6 c0 -3 -4 -8 -10 -11 -5 -3 -10 -1 -10 4 0 6 5 11 10 11 6 0 10 -2 10 -4z
m26 -44 c-8 -16 -22 -29 -30 -29 -23 0 -20 15 5 22 16 5 18 10 8 21 -10 13 -6
18 14 15 4 0 7 5 8 12 0 9 2 9 5 0 3 -6 -2 -25 -10 -41z m2711 17 c2 -16 1
-18 -11 -7 -8 7 -10 15 -5 16 5 2 6 9 2 15 -3 7 -2 9 2 4 5 -4 10 -17 12 -28z
m783 2 c0 -4 -9 -7 -20 -8 -11 -1 -20 4 -20 12 0 8 7 11 20 8 11 -3 20 -8 20
-12z m-4730 -1 c0 -5 -5 -10 -11 -10 -5 0 -7 5 -4 10 3 6 8 10 11 10 2 0 4 -4
4 -10z m1016 -23 c14 -3 5 -26 -30 -76 -19 -26 -37 -57 -40 -69 -4 -12 -16
-27 -26 -32 -11 -6 -17 -18 -15 -30 2 -11 0 -20 -6 -20 -5 0 -9 -7 -9 -15 0
-13 4 -14 20 -5 23 12 26 5 7 -14 -14 -14 -89 -27 -81 -14 3 4 -2 8 -10 8 -9
0 -18 -11 -22 -24 -7 -29 -50 -41 -59 -17 -6 14 -9 13 -23 -5 -23 -27 -58 -36
-73 -17 -11 12 -16 10 -36 -11 -30 -33 -56 -33 -82 0 -12 15 -21 22 -21 17 0
-5 -9 -19 -20 -31 -17 -18 -24 -20 -39 -10 -13 8 -26 8 -51 0 -28 -10 -35 -9
-46 6 -11 15 -9 18 14 26 46 15 235 116 272 144 19 15 41 27 48 26 6 -1 17 -2
22 -3 15 -2 -7 -41 -23 -41 -7 0 -30 -17 -52 -37 l-40 -36 59 32 c70 39 74 42
142 106 29 28 59 51 66 53 7 2 16 8 19 14 4 5 9 3 13 -7 4 -12 -15 -37 -69
-90 -41 -40 -75 -76 -75 -79 0 -12 84 52 121 91 49 53 109 138 109 155 0 20
12 31 20 17 4 -6 11 -11 16 -12z m334 13 c0 -5 -2 -10 -4 -10 -3 0 -8 5 -11
10 -3 6 -1 10 4 10 6 0 11 -4 11 -10z m2644 1 c4 -5 -3 -7 -14 -4 -23 6 -26
13 -6 13 8 0 17 -4 20 -9z m811 -10 c-8 -14 -25 -14 -25 0 0 5 5 7 10 4 6 -3
10 -1 10 6 0 7 3 10 6 6 3 -3 3 -10 -1 -16z m-3377 -9 c2 -7 -2 -10 -12 -6 -9
3 -16 11 -16 16 0 13 23 5 28 -10z m3416 9 c8 -13 -12 -63 -23 -57 -7 5 -8 25
-2 59 2 10 19 9 25 -2z m-3560 -29 c3 -5 -1 -9 -9 -9 -8 0 -12 4 -9 9 3 4 7 8
9 8 2 0 6 -4 9 -8z m211 -40 c-3 -3 -18 7 -33 23 l-27 28 33 -23 c18 -12 31
-25 27 -28z m3315 34 c0 -3 -4 -8 -10 -11 -5 -3 -10 -1 -10 4 0 6 5 11 10 11
6 0 10 -2 10 -4z m-3391 -17 c-12 -7 -11 -9 2 -9 8 0 26 -12 40 -27 22 -25 22
-26 1 -9 -12 11 -25 16 -28 13 -8 -8 -66 22 -60 31 2 4 16 8 32 9 19 1 23 -1
13 -8z m-889 -7 c0 -4 -20 -12 -45 -18 -47 -11 -62 0 -22 16 28 11 67 13 67 2z
m620 4 c0 -2 -8 -10 -17 -17 -16 -13 -17 -12 -4 4 13 16 21 21 21 13z m-463
-12 c-3 -3 -12 -4 -19 -1 -8 3 -5 6 6 6 11 1 17 -2 13 -5z m-127 -25 c-14 -4
-34 -7 -45 -8 -17 -1 -16 1 5 12 14 7 34 11 45 8 18 -4 18 -6 -5 -12z m90 17
c0 -2 -11 -6 -25 -8 -14 -3 -25 -1 -25 3 0 5 11 9 25 9 14 0 25 -2 25 -4z
m4040 -15 c0 -5 -7 -12 -16 -15 -14 -5 -15 -4 -4 9 14 17 20 19 20 6z m176 -9
c1 -7 0 -8 -3 -2 -2 5 -9 8 -14 4 -5 -3 -9 0 -9 6 0 15 23 7 26 -8z m-4611
-10 c-3 -3 -11 0 -18 7 -9 10 -8 11 6 5 10 -3 15 -9 12 -12z m205 -2 c0 -5 -2
-10 -4 -10 -3 0 -8 5 -11 10 -3 6 -1 10 4 10 6 0 11 -4 11 -10z m685 -11 c-4
-5 -13 -9 -22 -9 -13 0 -13 3 -3 15 13 15 35 11 25 -6z m3592 -31 c-3 -8 -6
-5 -6 6 -1 11 2 17 5 13 3 -3 4 -12 1 -19z m-3673 -3 c-4 -9 0 -15 7 -15 9 0
7 -5 -5 -11 -15 -9 -16 -13 -5 -20 19 -12 -2 -32 -25 -23 -16 6 -15 9 5 30 21
22 21 24 4 24 -18 0 -18 1 1 15 24 18 25 18 18 0z m433 0 c4 -4 3 -5 -4 -1 -6
3 -14 2 -17 -3 -3 -5 6 -12 22 -16 24 -6 25 -8 8 -14 -11 -4 -29 -3 -41 3 -18
8 -20 14 -12 27 11 17 31 19 44 4z m73 -11 c0 -2 -9 0 -20 6 -11 6 -20 13 -20
16 0 2 9 0 20 -6 11 -6 20 -13 20 -16z m-591 -31 c1 -7 -8 -13 -18 -13 -11 0
-21 -6 -23 -12 -3 -8 -9 -4 -17 10 -9 17 -9 22 1 22 7 0 19 10 27 22 14 22 14
22 22 3 4 -11 8 -26 8 -32z m2941 26 c0 -5 -4 -8 -9 -5 -5 3 -12 -1 -15 -10
-4 -9 -9 -15 -11 -12 -3 3 -3 13 1 22 7 18 34 22 34 5z m1150 7 c0 -3 -4 -8
-10 -11 -5 -3 -10 -1 -10 4 0 6 5 11 10 11 6 0 10 -2 10 -4z m-4903 -41 c-8
-17 -18 -24 -30 -21 -9 2 -15 1 -12 -4 3 -4 -6 -10 -19 -12 -19 -4 -22 -1 -18
14 2 10 12 18 22 18 9 0 25 9 35 20 23 26 36 17 22 -15z m347 10 c3 -8 9 -15
13 -14 46 8 41 -12 -10 -35 -23 -10 -73 -33 -112 -51 -100 -47 -135 -57 -151
-44 -17 14 -18 31 -1 27 6 -2 28 7 47 18 19 12 70 34 113 49 42 15 77 32 77
36 0 5 -4 9 -10 9 -5 0 -10 5 -10 10 0 16 37 12 44 -5z m4271 -4 c3 -5 2 -12
-3 -15 -5 -3 -9 1 -9 9 0 17 3 19 12 6z m-4570 -11 c3 -5 -1 -10 -9 -10 -8 0
-18 5 -21 10 -3 6 1 10 9 10 8 0 18 -4 21 -10z m169 -7 c3 -8 2 -11 -3 -8 -5
3 -16 -3 -23 -14 -8 -11 -29 -21 -47 -23 -18 -2 -36 -10 -41 -18 -6 -8 -10
-11 -10 -7 0 5 -6 5 -12 1 -27 -17 -85 -15 -99 2 -13 16 -12 17 9 11 16 -4 30
1 43 14 10 10 27 19 37 19 9 0 39 8 65 18 58 22 74 23 81 5z m1302 -10 c-6 -6
-36 9 -36 18 0 5 9 4 20 -3 10 -7 18 -14 16 -15z m175 17 c10 -6 19 -19 19
-29 0 -13 6 -17 23 -14 15 3 26 -3 36 -19 14 -23 14 -23 -7 -5 -13 12 -28 16
-41 12 -15 -4 -21 -2 -21 9 0 8 -10 24 -22 36 -24 22 -18 26 13 10z m-256 -10
c-3 -5 1 -10 9 -10 9 0 16 -4 16 -10 0 -5 11 -10 24 -10 19 0 23 -4 19 -19 -3
-12 5 -25 24 -39 24 -17 30 -18 41 -6 9 10 25 13 50 9 54 -9 62 -13 62 -27 0
-9 -3 -8 -10 2 -8 13 -10 13 -10 -2 0 -11 14 -24 36 -33 45 -18 44 -18 44 1 0
8 -4 13 -9 10 -11 -7 -33 18 -24 27 6 6 42 1 73 -10 8 -3 34 -5 58 -4 23 2 42
-1 42 -6 0 -4 30 -7 67 -6 45 2 61 0 48 -6 -11 -5 -24 -6 -29 -3 -5 2 -7 -1
-4 -9 6 -17 81 -41 126 -40 30 0 32 -1 17 -16 -13 -12 -28 -14 -71 -9 -38 4
-53 3 -49 -4 4 -6 12 -10 18 -9 32 4 38 -1 22 -17 -15 -15 -21 -15 -79 5 -34
11 -66 21 -71 21 -18 0 11 -18 47 -30 33 -10 36 -13 24 -26 -11 -10 -21 -11
-39 -5 -14 6 -29 6 -38 0 -8 -5 -11 -9 -6 -9 10 0 -21 -60 -32 -60 -4 0 -8 7
-8 15 0 8 6 15 14 15 7 0 13 5 13 10 0 6 -4 10 -10 10 -5 0 -19 9 -31 21 -15
15 -24 18 -32 10 -16 -16 -38 -13 -52 6 -10 14 -16 15 -28 5 -18 -15 -44 -6
-52 19 -7 20 -31 26 -37 8 -4 -13 -38 0 -38 15 0 22 -22 37 -37 25 -17 -14
-43 5 -43 32 0 21 -16 34 -25 20 -9 -16 -35 -1 -35 21 0 31 -18 57 -37 52 -27
-6 -43 9 -36 34 4 18 10 21 31 15 21 -5 24 -3 19 11 -5 11 -1 16 14 16 11 0
17 -4 14 -10z m-609 -32 c-9 -45 -24 -60 -47 -47 -10 5 -19 15 -19 22 0 7 4 6
10 -3 8 -13 10 -12 10 3 0 9 6 17 13 18 10 0 10 2 0 6 -7 2 -13 9 -13 14 0 6
4 8 8 5 4 -2 14 -1 22 5 22 13 23 12 16 -23z m1444 12 c0 -5 -8 -10 -17 -10
-10 0 -36 -2 -58 -5 -37 -4 -36 -4 10 9 65 18 65 18 65 6z m2385 -28 c-3 -3
-11 0 -18 7 -9 10 -8 11 6 5 10 -3 15 -9 12 -12z m-2817 -4 c-2 -6 -14 -13
-27 -15 -12 -2 -20 1 -17 6 4 5 0 12 -6 14 -7 3 2 6 20 6 21 1 32 -3 30 -11z
m3038 -2 c8 -8 14 -17 14 -20 0 -11 -29 6 -34 20 -7 18 1 18 20 0z m-278 -21
c-3 -3 -9 2 -12 12 -6 14 -5 15 5 6 7 -7 10 -15 7 -18z m-2983 5 c3 -6 -1 -7
-9 -4 -18 7 -21 14 -7 14 6 0 13 -4 16 -10z m2339 -20 c14 0 30 -29 21 -38 -3
-3 -5 0 -5 7 0 8 -12 11 -34 10 -19 -2 -38 0 -42 4 -4 4 0 7 9 7 11 0 17 8 17
23 1 20 2 20 11 5 5 -10 16 -18 23 -18z m663 8 c-3 -8 -6 -5 -6 6 -1 11 2 17
5 13 3 -3 4 -12 1 -19z m30 0 c-3 -8 -6 -5 -6 6 -1 11 2 17 5 13 3 -3 4 -12 1
-19z m-2772 5 c-11 -3 -23 -10 -27 -17 -5 -7 -8 -5 -8 7 0 12 7 17 28 16 21
-1 22 -2 7 -6z m2970 -3 c3 -5 1 -10 -4 -10 -6 0 -11 5 -11 10 0 6 2 10 4 10
3 0 8 -4 11 -10z m-4110 -29 c-5 -17 -9 -18 -20 -8 -12 10 -11 14 2 24 21 16
27 10 18 -16z m645 7 c0 -7 -5 -6 -13 1 -8 6 -18 7 -22 3 -5 -4 -5 -2 -1 5 8
14 36 6 36 -9z m377 16 c-3 -3 -12 -4 -19 -1 -8 3 -5 6 6 6 11 1 17 -2 13 -5z
m407 -9 c-4 -8 -13 -15 -21 -15 -13 0 -13 3 -3 15 7 8 16 15 21 15 5 0 6 -7 3
-15z m-797 -45 c2 -18 -16 -30 -18 -12 0 4 -2 15 -4 24 -2 10 2 15 9 12 6 -2
12 -13 13 -24z m626 23 c-7 -2 -21 -2 -30 0 -10 3 -4 5 12 5 17 0 24 -2 18 -5z
m44 1 c-3 -3 -12 -4 -19 -1 -8 3 -5 6 6 6 11 1 17 -2 13 -5z m1446 -34 c-7 -8
-22 24 -16 34 4 5 10 1 13 -10 4 -10 6 -21 3 -24z m-1357 21 c-7 -11 37 -23
58 -15 12 5 15 2 10 -10 -4 -12 -19 -16 -53 -16 -27 0 -41 4 -33 8 7 5 10 16
6 25 -3 10 -1 17 6 17 6 0 9 -4 6 -9z m148 -29 c6 -11 -5 -27 -26 -35 -10 -4
-18 1 -21 13 -3 10 -2 21 1 24 8 9 40 7 46 -2z m1678 -14 c-7 -7 -12 -8 -12
-2 0 6 3 14 7 17 3 4 9 5 12 2 2 -3 -1 -11 -7 -17z m513 2 c3 -5 1 -10 -4 -10
-6 0 -11 5 -11 10 0 6 2 10 4 10 3 0 8 -4 11 -10z m-3815 -10 c0 -5 -5 -10
-11 -10 -5 0 -7 5 -4 10 3 6 8 10 11 10 2 0 4 -4 4 -10z m3673 -5 c4 -8 2 -17
-3 -20 -6 -4 -10 3 -10 14 0 25 6 27 13 6z m573 2 c13 17 13 17 14 -5 0 -20
-5 -22 -34 -20 -19 1 -32 6 -30 10 3 5 10 6 15 3 5 -4 10 2 10 12 1 17 2 17 6
0 5 -18 5 -18 19 0z m-349 -19 c-3 -8 -6 -5 -6 6 -1 11 2 17 5 13 3 -3 4 -12
1 -19z m-3932 0 c5 4 5 1 1 -6 -6 -10 -11 -10 -22 -1 -8 6 -14 14 -14 16 0 3
6 0 13 -6 8 -6 18 -7 22 -3z m3982 -20 c-3 -8 -6 -5 -6 6 -1 11 2 17 5 13 3
-3 4 -12 1 -19z m95 -1 c-7 -8 -8 -18 -4 -22 4 -5 1 -5 -5 -1 -7 4 -13 13 -13
21 0 7 6 15 13 18 18 6 22 -1 9 -16z m-4245 -9 c-3 -8 -6 -5 -6 6 -1 11 2 17
5 13 3 -3 4 -12 1 -19z m3198 2 c3 -5 -1 -10 -10 -10 -9 0 -13 5 -10 10 3 6 8
10 10 10 2 0 7 -4 10 -10z m-200 -10 c3 -5 -1 -10 -9 -10 -8 0 -18 5 -21 10
-3 6 1 10 9 10 8 0 18 -4 21 -10z m1396 -13 c-10 -9 -11 -8 -5 6 3 10 9 15 12
12 3 -3 0 -11 -7 -18z m-4440 -4 c13 -16 12 -17 -3 -4 -17 13 -22 21 -14 21 2
0 10 -8 17 -17z m1688 -9 c-12 -15 -29 -10 -29 9 0 7 4 6 10 -3 8 -13 10 -12
10 3 0 10 5 15 10 12 8 -5 7 -11 -1 -21z m2543 4 c-7 -7 -12 -8 -12 -2 0 6 3
14 7 17 3 4 9 5 12 2 2 -3 -1 -11 -7 -17z m-986 -26 c-17 -16 -18 -16 -5 5 7
12 15 20 18 17 3 -2 -3 -12 -13 -22z m114 24 c0 -2 -7 -6 -15 -10 -8 -3 -15
-1 -15 4 0 6 7 10 15 10 8 0 15 -2 15 -4z m645 -6 c3 -5 1 -10 -4 -10 -6 0
-11 5 -11 10 0 6 2 10 4 10 3 0 8 -4 11 -10z m33 -15 c-3 -3 -9 2 -12 12 -6
14 -5 15 5 6 7 -7 10 -15 7 -18z m212 -15 c0 -5 -2 -10 -4 -10 -3 0 -8 5 -11
10 -3 6 -1 10 4 10 6 0 11 -4 11 -10z m100 6 c0 -2 -8 -10 -17 -17 -16 -13
-17 -12 -4 4 13 16 21 21 21 13z m-2822 -34 c-2 -8 -9 -17 -16 -18 -7 -1 -8 0
-2 3 7 3 5 11 -5 23 -16 18 -16 18 5 13 12 -3 20 -12 18 -21z m2626 3 c11 -8
18 -17 15 -19 -2 -3 -15 4 -29 14 -14 11 -20 20 -15 19 6 0 19 -6 29 -14z
m196 -28 c0 -6 -3 -7 -7 -4 -3 4 -15 0 -25 -10 -20 -18 -25 -4 -5 16 6 7 8 12
2 11 -18 -4 -26 0 -20 10 7 11 55 -9 55 -23z m-246 7 c3 -8 2 -12 -4 -9 -6 3
-10 10 -10 16 0 14 7 11 14 -7z m-998 -6 c4 -7 3 -8 -4 -4 -7 4 -12 2 -12 -4
0 -6 -5 -8 -11 -4 -8 4 -7 9 2 15 18 11 17 11 25 -3z m294 2 c0 -5 -7 -10 -16
-10 -8 0 -12 5 -9 10 3 6 10 10 16 10 5 0 9 -4 9 -10z m750 -15 c0 -9 -6 -12
-16 -8 -13 5 -13 7 -2 14 17 11 18 11 18 -6z m-2723 -10 c0 -8 -4 -12 -9 -9
-5 3 -6 10 -3 15 9 13 12 11 12 -6z m2712 -28 c0 -9 -2 -8 -6 1 -2 6 -10 9
-15 6 -7 -4 -8 -2 -4 5 9 13 26 5 25 -12z m161 9 c0 -3 -4 -8 -10 -11 -5 -3
-10 -1 -10 4 0 6 5 11 10 11 6 0 10 -2 10 -4z m-780 -25 c0 -6 -4 -13 -10 -16
-5 -3 -10 1 -10 9 0 9 5 16 10 16 6 0 10 -4 10 -9z m594 -37 c3 -8 2 -12 -4
-9 -6 3 -10 10 -10 16 0 14 7 11 14 -7z m69 -25 c-3 -11 0 -19 7 -19 7 0 10
-6 7 -14 -3 -7 0 -19 6 -25 9 -9 9 -14 0 -19 -6 -4 -9 -19 -6 -33 4 -21 9 -25
26 -21 14 3 18 1 13 -6 -4 -7 -13 -12 -21 -12 -7 0 -16 -6 -18 -12 -3 -7 -6
-2 -8 12 -1 14 -3 30 -4 35 -2 6 -3 14 -4 19 0 5 -8 3 -16 -4 -21 -18 -26 -9
-16 28 9 29 8 30 -10 19 -10 -6 -19 -16 -19 -20 0 -18 22 -47 35 -47 8 0 15
-8 15 -17 0 -14 -2 -15 -9 -4 -7 11 -13 9 -31 -9 l-22 -22 7 21 c4 13 1 28 -5
36 -17 21 -31 19 -23 -2 5 -15 3 -15 -14 2 -22 21 -21 35 2 35 22 0 55 32 55
53 0 14 4 16 19 7 29 -15 30 -13 21 19 -6 23 -5 29 5 25 7 -3 11 -14 8 -25z
m-412 -2 c-10 -9 -11 -8 -5 6 3 10 9 15 12 12 3 -3 0 -11 -7 -18z m576 11 c-2
-7 3 -18 12 -25 14 -11 14 -12 -1 -13 -12 0 -18 -8 -18 -22 -1 -21 -3 -21 -31
10 -29 33 -34 57 -6 34 18 -15 30 -3 16 15 -9 10 -7 13 11 13 13 0 20 -5 17
-12z m-227 -29 c0 -5 -4 -9 -10 -9 -5 0 -10 7 -10 16 0 8 5 12 10 9 6 -3 10
-10 10 -16z m-393 -24 c-15 -16 -19 -13 -11 9 3 9 10 13 15 10 5 -3 3 -11 -4
-19z m80 19 c-3 -3 -12 -4 -19 -1 -8 3 -5 6 6 6 11 1 17 -2 13 -5z m-125 -26
c-2 -10 -9 -18 -15 -18 -6 0 4 -13 21 -28 31 -28 42 -52 23 -52 -15 0 -23 -32
-11 -44 8 -8 9 -6 5 7 -4 10 -2 17 4 17 6 0 11 -9 11 -20 0 -11 -4 -20 -10
-20 -5 0 -10 -7 -10 -15 0 -8 4 -15 9 -15 6 0 22 -11 37 -25 15 -14 33 -24 41
-21 7 3 15 1 18 -5 4 -5 11 -7 16 -3 5 3 17 0 25 -7 13 -10 13 -8 5 13 -10 26
-9 26 19 12 30 -15 42 -36 34 -57 -2 -7 3 -21 12 -32 8 -11 13 -15 10 -9 -3 6
1 11 10 11 8 0 18 -14 23 -31 8 -33 4 -56 -10 -56 -4 0 -6 -6 -3 -14 3 -8 1
-17 -5 -21 -10 -5 -15 7 -12 27 0 4 -6 5 -14 2 -8 -4 -15 -10 -15 -16 0 -5 -4
-6 -10 -3 -15 9 -12 25 6 25 8 0 12 5 9 10 -4 6 -10 8 -15 5 -4 -3 -10 0 -12
6 -3 8 -9 6 -20 -4 -8 -9 -19 -13 -22 -9 -4 3 -11 0 -16 -8 -8 -13 -10 -12
-10 3 0 17 -3 16 -32 -4 -22 -16 -28 -17 -19 -6 11 14 11 17 0 17 -17 0 -40
-14 -42 -26 -3 -15 -27 -13 -27 2 0 9 5 12 10 9 6 -3 10 0 10 9 0 8 -6 17 -12
19 -10 4 -9 8 2 16 12 8 16 6 22 -12 l6 -22 1 23 c1 12 -6 25 -14 28 -8 4 -15
12 -15 20 0 8 7 14 15 14 8 0 15 -6 15 -14 0 -8 4 -18 10 -21 6 -3 7 1 4 9 -5
14 4 20 27 18 3 -1 6 6 6 14 0 9 -4 11 -9 6 -5 -5 -25 -8 -44 -5 -20 3 -34 0
-34 -6 0 -6 -10 -11 -22 -11 l-22 0 22 16 c12 8 27 25 33 36 9 17 8 24 -6 34
-10 8 -16 21 -13 32 3 12 -2 23 -14 31 -16 10 -19 10 -12 -1 4 -7 4 -10 -1 -6
-4 4 -13 0 -20 -9 -10 -13 -8 -20 7 -35 10 -10 23 -18 28 -18 6 0 10 -2 10 -4
0 -2 3 -11 6 -20 5 -12 0 -16 -17 -16 -19 0 -21 2 -9 10 13 9 13 11 0 20 -11
7 -18 4 -25 -11 -6 -11 -14 -16 -18 -13 -11 11 -8 26 3 19 6 -3 10 1 10 9 0 9
-5 16 -10 16 -6 0 -9 12 -6 28 2 15 5 30 5 33 1 4 12 10 26 13 25 6 36 36 13
36 -9 0 -9 3 0 12 7 7 12 21 11 33 0 19 -1 19 -9 -2 -10 -25 -11 -26 -34 -17
-21 8 -20 26 1 22 11 -2 19 5 21 17 2 11 6 27 9 35 3 8 5 20 5 26 -1 6 4 11
12 11 8 0 11 -7 8 -19z m-80 -19 c-1 -13 -8 -28 -14 -34 -8 -7 -9 -6 -4 3 4 6
2 12 -3 12 -6 0 -10 11 -9 24 1 15 8 23 18 21 9 -1 14 -11 12 -26z m712 0 c-3
-5 0 -8 7 -7 6 2 14 -3 16 -9 6 -16 -33 -18 -42 -3 -9 15 3 43 15 35 6 -4 8
-11 4 -16z m-334 4 c0 -2 -14 -17 -31 -34 -25 -24 -34 -28 -40 -17 -5 7 -9 18
-9 23 0 6 5 3 10 -5 9 -13 11 -13 19 0 5 8 7 18 4 24 -3 5 -1 6 5 2 7 -4 12
-3 12 2 0 5 7 9 15 9 8 0 15 -2 15 -4z m260 -3 c0 -5 -5 -10 -11 -10 -5 0 -7
5 -4 10 3 6 8 10 11 10 2 0 4 -4 4 -10z m-795 -20 c-3 -4 -13 -10 -24 -13 -14
-3 -17 0 -14 13 3 12 11 16 24 13 10 -3 17 -9 14 -13z m71 -15 c-2 -7 2 -16
10 -19 9 -3 12 -1 9 4 -3 6 0 10 9 10 11 0 14 -12 11 -57 -1 -32 1 -67 5 -78
6 -17 4 -21 -12 -22 -14 -1 -18 3 -14 13 4 10 0 14 -12 12 -13 -2 -17 5 -19
27 -1 17 -4 50 -7 74 -3 25 -3 48 0 53 8 13 26 -2 20 -17z m-396 11 c0 -3 -4
-8 -10 -11 -5 -3 -10 -1 -10 4 0 6 5 11 10 11 6 0 10 -2 10 -4z m873 -16 c3
-12 0 -20 -8 -20 -8 0 -11 8 -8 20 3 11 7 20 8 20 1 0 5 -9 8 -20z m-508 -69
c2 -35 1 -60 -3 -56 -4 3 -8 11 -8 16 -1 5 -2 15 -3 22 -1 7 -7 4 -16 -7 -17
-23 -17 -23 -20 25 -1 20 -6 42 -10 49 -6 10 -4 12 9 7 10 -4 19 -1 23 9 11
28 23 -1 28 -65z m261 33 c-4 -14 -11 -22 -15 -19 -5 3 -4 19 2 35 13 35 22
23 13 -16z m-612 20 c3 -8 2 -12 -4 -9 -6 3 -10 10 -10 16 0 14 7 11 14 -7z
m-69 -4 c3 -5 -1 -10 -10 -10 -9 0 -13 5 -10 10 3 6 8 10 10 10 2 0 7 -4 10
-10z m723 -12 c-4 -29 -25 -35 -22 -6 3 29 2 28 15 28 6 0 9 -10 7 -22z m147
-8 c3 -5 1 -10 -4 -10 -6 0 -11 5 -11 10 0 6 2 10 4 10 3 0 8 -4 11 -10z m162
-5 c0 -8 -4 -15 -9 -15 -4 0 -8 7 -8 15 0 8 4 15 8 15 5 0 9 -7 9 -15z m-971
-50 c-3 -9 -10 -13 -16 -10 -5 3 -10 1 -10 -6 0 -7 -3 -10 -6 -6 -3 3 1 16 9
28 9 11 13 29 11 38 -3 9 1 6 7 -6 6 -12 9 -29 5 -38z m1121 35 c-1 -12 -5
-16 -10 -11 -5 5 -6 14 -3 20 11 16 15 13 13 -9z m-1074 -11 c4 -16 3 -18 -9
-8 -7 6 -11 15 -8 20 8 13 11 11 17 -12z m1044 -1 c-3 -8 -6 -5 -6 6 -1 11 2
17 5 13 3 -3 4 -12 1 -19z m73 -13 c0 -8 -4 -15 -10 -15 -5 0 -7 7 -4 15 4 8
8 15 10 15 2 0 4 -7 4 -15z m-1094 -55 c0 -23 -12 -17 -19 9 -3 12 0 18 7 15
6 -2 12 -13 12 -24z m243 -15 c0 -5 -4 -3 -9 5 -5 8 -9 22 -9 30 0 16 17 -16
18 -35z m908 18 c-3 -3 -11 -2 -17 2 -9 6 -9 10 1 16 14 8 27 -7 16 -18z
m-3888 -38 c2 17 5 25 7 18 3 -7 12 -9 20 -6 8 3 14 0 14 -6 0 -6 -7 -11 -16
-11 -11 0 -14 -5 -10 -16 3 -9 9 -27 12 -41 6 -22 4 -24 -13 -19 -19 6 -20 3
-14 -26 4 -18 12 -34 19 -34 7 -1 22 -2 35 -4 12 -1 -6 -8 -41 -15 -54 -12
-132 -24 -397 -61 -22 -3 -42 -7 -45 -9 -3 -2 -44 -6 -90 -9 -54 -3 -74 -2
-55 3 17 5 45 9 63 10 19 1 35 7 38 16 4 8 15 15 25 15 15 0 19 7 19 37 0 34
-1 36 -14 17 -14 -18 -15 -18 -13 4 1 12 7 22 14 22 7 0 13 9 13 20 0 11 5 20
11 20 8 0 9 -22 6 -70 l-6 -69 32 5 c74 12 76 13 73 37 -1 13 -6 29 -11 36 -5
10 -4 12 3 7 7 -4 12 -3 12 2 0 6 -7 12 -15 16 -22 8 -18 50 7 72 18 15 20 15
9 2 -7 -10 -11 -23 -9 -30 3 -7 12 1 22 20 9 18 15 36 12 40 -3 5 12 9 32 10
20 1 49 5 63 8 26 5 43 -14 52 -61 4 -19 4 -19 12 -1 5 11 3 26 -3 37 -18 28
-14 37 4 11 17 -25 15 -78 -3 -75 -7 2 -10 -4 -7 -12 4 -8 11 -12 16 -9 6 4 7
-2 3 -17 -4 -13 -12 -25 -16 -27 -5 -2 -9 -8 -9 -13 0 -10 43 -12 89 -3 l31 7
2 106 c1 80 3 95 8 61 6 -37 7 -39 9 -15z m258 49 c-3 -3 -12 -4 -19 -1 -8 3
-5 6 6 6 11 1 17 -2 13 -5z m-52 -13 c3 -5 2 -12 -2 -14 -12 -8 -63 4 -63 14
0 12 57 12 65 0z m3149 -17 c3 -8 2 -12 -4 -9 -6 3 -10 10 -10 16 0 14 7 11
14 -7z m503 -10 c-9 -9 -28 6 -21 18 4 6 10 6 17 -1 6 -6 8 -13 4 -17z m-3767
6 c0 -5 -7 -10 -15 -10 -8 0 -15 5 -15 10 0 6 7 10 15 10 8 0 15 -4 15 -10z
m212 -12 c-7 -7 -12 -8 -12 -2 0 14 12 26 19 19 2 -3 -1 -11 -7 -17z m-867 -8
c3 -5 1 -10 -4 -10 -6 0 -11 5 -11 10 0 6 2 10 4 10 3 0 8 -4 11 -10z m760
-10 c8 -27 -13 -54 -30 -40 -15 13 -7 60 10 60 8 0 17 -9 20 -20z m3368 -12
c6 -22 6 -22 -8 -4 -17 23 -20 14 -5 -15 8 -15 7 -19 -5 -19 -9 0 -15 9 -15
23 0 41 24 51 33 15z m-3286 -3 c0 -8 -6 -16 -14 -19 -8 -3 -13 2 -13 14 0 11
6 20 13 20 8 0 14 -7 14 -15z m-827 -9 c0 -3 -4 -8 -10 -11 -5 -3 -10 -1 -10
4 0 6 5 11 10 11 6 0 10 -2 10 -4z m40 -39 c0 -7 -12 -13 -27 -14 -16 0 -34
-1 -40 -2 -8 -1 -13 -16 -13 -38 0 -21 -5 -45 -10 -53 -7 -11 -10 4 -10 48 l0
63 34 -5 c19 -3 38 -1 41 4 9 14 25 12 25 -3z m847 -64 c-2 -16 -4 -3 -4 27 0
30 2 43 4 28 2 -16 2 -40 0 -55z m132 25 c0 7 5 10 11 7 6 -4 7 1 3 12 -4 13
-3 15 5 8 6 -5 14 -23 18 -40 5 -25 4 -28 -7 -17 -7 6 -21 12 -30 12 -19 0
-31 34 -21 58 5 12 9 7 13 -18 4 -19 7 -29 8 -22z m85 38 c-3 -7 2 -16 10 -19
16 -6 21 -42 10 -71 -8 -20 -24 -21 -24 -1 0 8 -6 15 -14 15 -17 0 -28 39 -16
59 8 13 9 12 10 -6 0 -13 5 -23 11 -23 6 0 8 9 4 20 -3 11 -3 24 0 30 9 15 15
12 9 -4z m-404 -16 c-9 -17 -50 -30 -50 -16 0 11 33 36 46 36 12 0 12 -4 4
-20z m43 14 c12 -4 13 -12 6 -37 -5 -18 -9 -44 -9 -59 0 -15 -5 -30 -12 -34
-6 -4 -8 -3 -5 3 4 6 1 13 -7 16 -11 4 -13 18 -10 49 7 68 10 73 37 62z m2617
-19 c0 -8 -5 -17 -12 -21 -7 -5 -8 -3 -3 6 6 10 4 12 -8 7 -20 -8 -22 -1 -4
17 14 16 27 11 27 -9z m410 1 c0 -3 -4 -8 -10 -11 -5 -3 -10 -1 -10 4 0 6 5
11 10 11 6 0 10 -2 10 -4z m-503 -38 c-3 -8 -6 -5 -6 6 -1 11 2 17 5 13 3 -3
4 -12 1 -19z m810 0 c-3 -8 -6 -5 -6 6 -1 11 2 17 5 13 3 -3 4 -12 1 -19z
m-742 -8 c-3 -5 -1 -10 4 -10 6 0 11 -8 11 -17 1 -17 1 -17 14 0 17 22 25 22
19 -1 -2 -10 -18 -23 -34 -29 -22 -9 -28 -8 -23 0 3 7 -2 3 -10 -7 -9 -11 -16
-23 -16 -28 0 -13 28 -9 32 4 5 14 38 3 38 -13 0 -8 -4 -9 -13 0 -17 13 -27 5
-20 -17 4 -13 3 -14 -5 -3 -14 19 -55 4 -47 -17 5 -13 3 -14 -5 -6 -9 9 -9 17
-1 32 6 10 7 22 4 26 -3 3 0 6 7 6 9 0 8 6 -5 20 -10 11 -15 23 -12 27 4 3 7
2 7 -4 0 -18 28 -23 34 -7 3 9 2 12 -5 9 -6 -4 -9 1 -7 11 2 11 10 22 18 26
21 9 22 9 15 -2z m157 -15 c-4 -22 -25 -33 -23 -12 1 4 1 14 1 22 0 8 6 15 14
15 9 0 12 -8 8 -25z m-2458 -6 c-6 -11 -24 -2 -24 11 0 5 7 7 15 4 8 -4 12
-10 9 -15z m219 -121 c16 -10 -3 -9 -28 2 -11 5 -14 9 -7 9 8 1 13 23 14 69
l2 67 3 -70 c2 -39 9 -73 16 -77z m1853 117 c8 -8 15 -17 14 -20 0 -3 1 -15 1
-27 1 -17 2 -19 6 -5 5 19 23 23 23 5 -1 -19 -23 -43 -44 -46 -13 -2 -16 1
-10 10 6 11 5 11 -8 0 -13 -10 -17 -9 -23 10 -13 42 -13 48 -3 55 7 4 9 -2 6
-15 -4 -12 -2 -25 3 -28 9 -5 14 22 11 59 -2 21 5 22 24 2z m-2411 -4 c-3 -5
-1 -12 5 -16 14 -9 13 -22 -3 -28 -9 -3 -12 4 -11 22 2 30 2 31 10 31 3 0 3
-4 -1 -9z m-695 -31 c-14 -4 -28 -2 -32 4 -11 17 14 26 36 13 21 -11 20 -11
-4 -17z m1270 5 c0 -14 -4 -25 -9 -25 -4 0 -6 11 -3 25 2 14 6 25 8 25 2 0 4
-11 4 -25z m-700 11 c0 -3 -4 -8 -10 -11 -5 -3 -10 -1 -10 4 0 6 5 11 10 11 6
0 10 -2 10 -4z m425 -16 c-3 -5 -11 -10 -16 -10 -6 0 -7 5 -4 10 3 6 11 10 16
10 6 0 7 -4 4 -10z m2502 -22 c-3 -8 -6 -5 -6 6 -1 11 2 17 5 13 3 -3 4 -12 1
-19z m-2367 -13 c-7 -8 -16 -15 -21 -15 -5 0 -1 8 9 18 20 22 31 19 12 -3z
m2280 21 c0 -2 -7 -9 -15 -16 -13 -11 -14 -10 -9 4 5 14 24 23 24 12z m133
-21 c-7 -21 -13 -19 -13 6 0 11 4 18 10 14 5 -3 7 -12 3 -20z m315 7 c2 -8 -5
-11 -19 -9 -30 5 -36 24 -7 22 12 -1 24 -7 26 -13z m42 8 c0 -5 -2 -10 -4 -10
-3 0 -8 5 -11 10 -3 6 -1 10 4 10 6 0 11 -4 11 -10z m-3110 -27 c0 -20 -3 -24
-11 -16 -7 7 -9 19 -6 27 10 24 17 19 17 -11z m-80 -4 c0 -6 -4 -7 -10 -4 -5
3 -10 11 -10 16 0 6 5 7 10 4 6 -3 10 -11 10 -16z m2512 -8 c10 -9 18 -22 18
-31 -1 -12 -3 -12 -11 3 -15 26 -27 21 -23 -10 2 -16 1 -20 -2 -10 -3 9 -10
15 -15 11 -12 -7 -7 18 6 29 6 6 6 10 -2 14 -7 2 -13 9 -13 14 0 11 14 4 42
-20z m867 11 c7 -14 6 -18 -10 -19 -24 -2 -36 17 -18 28 18 11 17 12 28 -9z
m-1035 -29 c12 -23 13 -31 3 -28 -18 8 -39 44 -31 56 7 12 7 12 28 -28z
m-3024 17 c0 -5 -2 -10 -4 -10 -3 0 -8 5 -11 10 -3 6 -1 10 4 10 6 0 11 -4 11
-10z m543 3 c-7 -2 -21 -2 -30 0 -10 3 -4 5 12 5 17 0 24 -2 18 -5z m196 -40
c-16 -18 -18 -16 -12 7 3 11 0 20 -6 20 -6 0 -11 5 -11 12 0 6 9 3 20 -7 15
-14 17 -21 9 -32z m388 41 c-3 -3 -12 -4 -19 -1 -8 3 -5 6 6 6 11 1 17 -2 13
-5z m-648 -9 c-7 -6 -254 -45 -276 -44 -10 1 41 12 112 24 136 24 171 28 164
20z m851 -9 c0 -9 -10 -13 -25 -12 -23 1 -24 2 -8 14 22 16 33 15 33 -2z
m2069 -3 c0 -10 -3 -13 -5 -7 -3 7 -15 10 -27 7 -18 -4 -19 -3 -7 6 23 16 40
13 39 -6z m-172 -15 c-3 -8 -6 -5 -6 6 -1 11 2 17 5 13 3 -3 4 -12 1 -19z
m-2644 5 c-7 -2 -19 -2 -25 0 -7 3 -2 5 12 5 14 0 19 -2 13 -5z m111 -29 c23
-28 26 -37 16 -47 -10 -9 -11 -9 -6 0 3 6 -2 18 -12 25 -21 14 -47 58 -35 57
4 0 21 -16 37 -35z m-161 19 c-7 -2 -21 -2 -30 0 -10 3 -4 5 12 5 17 0 24 -2
18 -5z m2540 0 c-15 -5 -18 -33 -4 -33 5 0 12 6 15 13 4 6 4 2 2 -10 -2 -12 2
-30 10 -40 7 -10 14 -13 14 -8 0 6 4 3 10 -5 5 -9 5 -19 -1 -27 -8 -9 -5 -11
11 -8 18 4 20 2 9 -11 -10 -12 -9 -13 6 -8 15 6 16 4 7 -13 -8 -15 -8 -23 1
-33 9 -10 9 -11 -2 -5 -8 4 -17 2 -22 -6 -7 -11 -9 -11 -9 3 0 9 4 19 10 23
13 8 -31 57 -46 51 -7 -3 -15 0 -18 7 -2 7 -5 5 -5 -5 -1 -9 4 -20 9 -23 8 -5
7 -11 0 -20 -7 -8 -9 -19 -5 -25 3 -5 2 -10 -3 -10 -6 0 -13 7 -16 16 -3 8
-10 13 -15 10 -5 -3 -14 1 -21 9 -7 8 -16 12 -21 9 -5 -3 -9 5 -9 17 0 12 -8
28 -17 35 -10 7 -14 16 -9 21 5 4 11 2 13 -4 3 -7 9 -13 14 -13 5 0 2 11 -6
24 -14 21 -14 24 0 29 10 4 17 -2 21 -18 9 -34 23 -22 18 15 -3 18 -1 30 6 30
6 0 8 -4 5 -10 -3 -5 -2 -10 4 -10 5 0 13 9 16 20 3 11 14 20 23 19 11 0 12
-3 5 -6z m267 -14 c0 -5 -7 -9 -15 -9 -15 0 -20 12 -9 23 8 8 24 -1 24 -14z
m505 -6 c-19 -35 -40 -63 -49 -63 -3 0 -6 9 -6 21 0 11 5 17 10 14 6 -3 13 2
17 12 8 24 23 43 34 43 5 0 3 -12 -6 -27z m-3392 10 c-7 -2 -19 -2 -25 0 -7 3
-2 5 12 5 14 0 19 -2 13 -5z m2947 -3 c0 -5 -2 -10 -4 -10 -3 0 -8 5 -11 10
-3 6 -1 10 4 10 6 0 11 -4 11 -10z m-3300 -16 c0 -2 -13 -4 -30 -4 -16 0 -30
4 -30 8 0 5 14 7 30 4 17 -2 30 -6 30 -8z m63 9 c-7 -2 -21 -2 -30 0 -10 3 -4
5 12 5 17 0 24 -2 18 -5z m225 0 c-10 -2 -28 -2 -40 0 -13 2 -5 4 17 4 22 1
32 -1 23 -4z m-782 -10 c-3 -4 -17 -8 -29 -10 -17 -2 -19 -1 -7 7 17 11 47 14
36 3z m414 -3 c-8 -5 -26 -9 -40 -9 -23 1 -23 2 5 9 43 11 52 11 35 0z m283 3
c-7 -2 -21 -2 -30 0 -10 3 -4 5 12 5 17 0 24 -2 18 -5z m-60 -10 c-7 -2 -21
-2 -30 0 -10 3 -4 5 12 5 17 0 24 -2 18 -5z m340 -44 c-26 -28 -57 -55 -68
-61 -11 -6 7 17 40 51 33 33 63 61 68 61 5 0 -13 -23 -40 -51z m464 45 c-3 -3
-12 -4 -19 -1 -8 3 -5 6 6 6 11 1 17 -2 13 -5z m2249 -13 c1 -6 0 -7 -2 -2 -3
6 -11 8 -19 5 -7 -3 -15 -1 -19 4 -3 5 5 8 16 7 12 -1 23 -7 24 -14z m132 -12
c-3 -8 -7 -3 -11 10 -4 17 -3 21 5 13 5 -5 8 -16 6 -23z m-3255 14 c-7 -2 -21
-2 -30 0 -10 3 -4 5 12 5 17 0 24 -2 18 -5z m298 -85 c-34 -34 -64 -58 -68
-54 -3 3 19 33 50 65 32 33 57 65 57 73 0 8 5 6 11 -6 10 -15 2 -27 -50 -78z
m286 66 c-9 -9 -28 6 -21 18 4 6 10 6 17 -1 6 -6 8 -13 4 -17z m242 10 c10 -9
-35 -3 -49 6 -11 8 -7 9 15 4 17 -4 32 -8 34 -10z m2207 -11 c-10 -10 -19 5
-10 18 6 11 8 11 12 0 2 -7 1 -15 -2 -18z m891 5 c-3 -8 -6 -5 -6 6 -1 11 2
17 5 13 3 -3 4 -12 1 -19z m-4600 6 c-3 -3 -12 -4 -19 -1 -8 3 -5 6 6 6 11 1
17 -2 13 -5z m601 -1 c-10 -2 -26 -2 -35 0 -10 3 -2 5 17 5 19 0 27 -2 18 -5z
m561 -5 c-2 -2 -17 -14 -34 -28 l-30 -25 29 32 c16 18 32 31 34 28 3 -3 3 -6
1 -7z m-646 -5 c-7 -2 -21 -2 -30 0 -10 3 -4 5 12 5 17 0 24 -2 18 -5z m389
-52 c-27 -38 -95 -94 -104 -86 -2 3 20 31 49 62 29 32 53 64 53 72 0 11 3 11
14 2 13 -11 11 -18 -12 -50z m2778 37 c0 -18 -2 -20 -9 -8 -6 8 -7 18 -5 22 9
14 14 9 14 -14z m1197 16 c-3 -3 -12 -4 -19 -1 -8 3 -5 6 6 6 11 1 17 -2 13
-5z m-4424 -11 c-7 -2 -19 -2 -25 0 -7 3 -2 5 12 5 14 0 19 -2 13 -5z m3359
-15 c-7 -7 -12 -8 -12 -2 0 6 3 14 7 17 3 4 9 5 12 2 2 -3 -1 -11 -7 -17z
m491 -2 c3 3 3 -4 0 -15 -4 -17 -2 -20 13 -15 19 7 18 6 0 -8 -15 -12 -17 -18
-7 -36 8 -15 8 -23 -1 -28 -7 -4 -8 -3 -4 4 4 7 4 12 1 12 -3 0 -11 -14 -17
-31 -6 -16 -13 -28 -15 -25 -3 3 -14 1 -24 -5 -13 -7 -19 -6 -19 1 0 6 -5 8
-10 5 -6 -4 -8 -11 -5 -16 4 -5 -4 -13 -17 -18 -13 -6 -19 -10 -15 -10 5 -1 1
-11 -7 -22 -8 -12 -12 -28 -9 -35 3 -8 1 -14 -5 -14 -5 0 -13 8 -17 18 -7 19
-4 28 8 24 5 -1 6 2 3 7 -10 16 14 70 30 64 8 -3 14 0 14 7 0 8 8 10 23 7 12
-4 29 -2 37 3 8 6 10 10 3 10 -14 0 -5 37 11 43 7 3 13 19 14 36 0 17 -4 29
-9 26 -5 -4 -9 4 -9 17 1 21 2 22 14 6 7 -10 16 -15 19 -12z m272 14 c3 -5 1
-10 -4 -10 -6 0 -11 5 -11 10 0 6 2 10 4 10 3 0 8 -4 11 -10z m-3745 -9 c0
-10 -100 -112 -100 -102 0 3 -4 -1 -10 -9 -5 -8 -12 -12 -15 -8 -7 7 104 127
118 128 4 0 7 -4 7 -9z m380 -9 c0 -7 -5 -10 -10 -7 -6 4 -19 1 -28 -7 -15
-11 -15 -11 -5 3 7 9 10 19 7 22 -4 3 3 5 15 4 11 -1 21 -7 21 -15z m-500 -22
c-14 -27 -87 -94 -113 -103 -13 -5 3 18 43 60 62 65 92 84 70 43z m927 24 c-3
-3 -12 -4 -19 -1 -8 3 -5 6 6 6 11 1 17 -2 13 -5z m873 -25 c0 -5 -4 -9 -10
-9 -5 0 -10 7 -10 16 0 8 5 12 10 9 6 -3 10 -10 10 -16z m-1891 -1 c-1 -16
-105 -108 -122 -108 -12 0 102 118 116 119 4 1 7 -5 6 -11z m880 -51 c17 -19
20 -26 9 -22 -22 9 -69 70 -61 79 4 4 11 -1 16 -11 5 -10 21 -31 36 -46z
m-979 44 c0 -11 -80 -85 -109 -101 -41 -21 -31 -5 20 35 28 22 55 48 60 58 10
18 29 23 29 8z m770 -8 c0 -10 -5 -25 -10 -33 -8 -13 -10 -12 -10 4 0 19 0 19
-22 0 l-23 -19 19 22 c10 13 23 20 29 16 6 -4 8 0 4 10 -3 10 -2 17 3 17 6 0
10 -8 10 -17z m447 11 c-3 -3 -12 -4 -19 -1 -8 3 -5 6 6 6 11 1 17 -2 13 -5z
m416 -16 c4 1 21 -5 38 -14 17 -8 33 -13 36 -10 3 2 10 1 17 -5 6 -5 22 -18
36 -29 25 -20 24 -20 -30 1 -101 38 -150 61 -150 71 0 5 10 3 23 -4 12 -7 26
-11 30 -10z m1692 12 c3 -6 -1 -7 -9 -4 -18 7 -21 14 -7 14 6 0 13 -4 16 -10z
m-3435 -9 c0 -9 -89 -88 -117 -104 -8 -5 -17 -7 -19 -4 -3 3 22 26 55 52 34
25 61 50 61 56 0 5 5 9 10 9 6 0 10 -4 10 -9z m1367 3 c-3 -3 -12 -4 -19 -1
-8 3 -5 6 6 6 11 1 17 -2 13 -5z m1690 -9 c0 -8 -4 -12 -9 -9 -4 3 -8 9 -8 15
0 5 4 9 8 9 5 0 9 -7 9 -15z m-1888 -41 c32 -32 39 -42 21 -34 -25 12 -89 80
-75 80 4 0 28 -21 54 -46z m2968 24 c-2 -12 -11 -22 -20 -24 -22 -3 -21 5 1
27 22 23 22 23 19 -3z m-2921 5 c-3 -4 22 -36 56 -72 61 -63 62 -64 13 -24
-66 54 -88 79 -80 92 3 6 9 11 12 11 4 0 3 -3 -1 -7z m-521 -24 c-4 -5 -13 -9
-20 -9 -8 0 -19 -9 -25 -20 -6 -11 -16 -20 -22 -20 -6 0 -1 11 12 25 13 14 30
25 37 25 8 0 11 5 7 12 -4 7 -3 8 5 4 6 -4 9 -12 6 -17z m2403 -10 c-6 -4 -8
-11 -4 -17 3 -6 2 -13 -3 -16 -5 -3 -11 4 -14 15 -7 25 14 53 25 36 4 -6 2
-14 -4 -18z m-2491 -13 c-9 -13 -13 -27 -10 -30 14 -13 11 -35 -3 -29 -8 3
-25 -2 -39 -11 -44 -29 -36 2 12 48 55 52 62 56 40 22z m2464 -13 c6 -21 15
-43 20 -49 5 -6 4 -15 -1 -20 -12 -12 -22 -54 -13 -54 3 0 11 7 17 16 11 14
13 13 28 -3 15 -17 15 -19 -7 -36 -24 -17 -24 -17 -49 25 -22 36 -23 44 -10
46 9 2 13 10 10 19 -3 8 -6 19 -6 25 0 6 -7 8 -14 5 -10 -4 -13 -1 -9 9 3 7 9
14 14 14 6 0 5 9 -1 20 -6 12 -7 20 -1 20 5 0 15 -17 22 -37z m412 17 c3 -11
1 -18 -4 -14 -5 3 -9 12 -9 20 0 20 7 17 13 -6z m-3690 -20 c-12 -9 -19 -21
-15 -25 4 -5 1 -5 -6 -1 -11 6 -9 13 9 32 12 13 25 21 28 18 3 -3 -4 -14 -16
-24z m760 17 c3 -7 -3 -13 -14 -13 -13 0 -15 3 -7 13 6 7 12 13 13 13 2 0 5
-6 8 -13z m792 -39 c48 -51 41 -46 -42 29 -12 10 -17 23 -10 23 1 0 25 -24 52
-52z m-527 17 c-3 -3 -9 2 -12 12 -6 14 -5 15 5 6 7 -7 10 -15 7 -18z m2552
21 c0 -3 -4 -8 -10 -11 -5 -3 -10 -1 -10 4 0 6 5 11 10 11 6 0 10 -2 10 -4z
m-2297 -26 c4 0 5 4 2 10 -4 6 1 7 11 3 15 -5 15 -7 -1 -16 -12 -7 -21 -5 -31
7 -8 9 -9 11 -2 6 7 -6 16 -10 21 -10z m357 -31 c30 -28 46 -45 35 -38 -30 20
-106 89 -97 89 4 0 32 -23 62 -51z m495 41 c3 -5 1 -10 -4 -10 -6 0 -11 5 -11
10 0 6 2 10 4 10 3 0 8 -4 11 -10z m1855 1 c0 -10 -26 -9 -36 2 -4 4 2 7 14 7
12 0 22 -4 22 -9z m165 0 c-9 -8 -36 -10 -30 -2 2 4 11 8 20 8 8 0 13 -3 10
-6z m-3483 -41 c6 0 19 7 29 16 17 15 18 15 16 -4 0 -12 -10 -23 -20 -26 -23
-6 -17 -32 6 -30 9 1 14 -3 11 -8 -3 -5 -12 -7 -19 -4 -7 2 -17 0 -23 -6 -5
-5 -20 -7 -33 -3 l-23 8 27 22 c21 19 23 26 13 34 -7 6 -17 7 -22 3 -4 -4 -2
2 6 12 13 17 15 17 18 3 2 -10 8 -17 14 -17z m2643 20 c-3 -6 4 -10 16 -10 18
0 20 -3 11 -12 -8 -8 -15 -8 -26 2 -14 11 -14 30 0 30 3 0 2 -4 -1 -10z m59
-5 c-4 -8 -8 -15 -10 -15 -2 0 -4 7 -4 15 0 8 4 15 10 15 5 0 7 -7 4 -15z
m-2814 -12 c0 -9 -3 -14 -6 -10 -8 7 -40 -23 -46 -43 -3 -8 -13 -15 -24 -15
-13 0 -22 -10 -29 -32 -10 -36 -17 -40 -33 -20 -7 9 9 28 61 74 40 34 73 62
75 62 1 1 2 -6 2 -16z m891 0 c13 -16 12 -17 -3 -4 -10 7 -18 15 -18 17 0 8 8
3 21 -13z m2046 -18 c-3 -21 -2 -33 4 -30 5 4 9 -3 9 -13 0 -11 -6 -22 -14
-25 -18 -7 -26 59 -11 86 15 26 18 21 12 -18z m-3046 7 c-22 -7 -48 -37 -43
-50 2 -7 -12 -19 -32 -27 -24 -10 -36 -22 -36 -35 0 -17 -3 -18 -19 -9 -17 11
-13 16 38 59 31 26 62 54 70 63 7 9 18 14 24 10 7 -4 7 -8 -2 -11z m929 12 c0
-8 -19 -13 -24 -6 -3 5 1 9 9 9 8 0 15 -2 15 -3z m-766 -21 c-6 -2 -9 -18 -8
-36 2 -17 1 -24 -2 -14 -7 23 -31 22 -44 -4 -14 -25 -6 -49 15 -49 15 0 15 -1
1 -16 -9 -8 -16 -22 -16 -29 0 -8 -9 -19 -20 -25 -21 -11 -46 -1 -81 32 -17
16 -14 20 54 72 40 30 79 61 86 70 8 9 17 14 20 10 3 -4 1 -8 -5 -11z m1221
-3 c10 -11 16 -20 13 -20 -3 0 -13 9 -23 20 -10 11 -16 20 -13 20 3 0 13 -9
23 -20z m374 -16 c-9 -11 -15 -12 -25 -3 -11 9 -12 15 -3 25 9 11 15 12 25 3
11 -9 12 -15 3 -25z m1181 16 c-6 -11 -13 -20 -16 -20 -2 0 0 9 6 20 6 11 13
20 16 20 2 0 0 -9 -6 -20z m-3150 0 c0 -5 -5 -10 -11 -10 -5 0 -7 5 -4 10 3 6
8 10 11 10 2 0 4 -4 4 -10z m1025 -8 c-3 -3 -11 0 -18 7 -9 10 -8 11 6 5 10
-3 15 -9 12 -12z m2085 3 c-7 -8 -17 -12 -23 -8 -6 4 -3 9 9 14 27 11 28 11
14 -6z m98 -4 c15 -9 15 -20 0 -38 -5 -7 -7 -17 -4 -22 4 -6 -8 -9 -28 -8 -19
1 -32 4 -30 6 2 3 -6 15 -18 28 -24 26 -19 32 6 7 9 -8 16 -11 16 -5 0 6 5 11
11 11 5 0 7 -5 3 -11 -4 -7 1 -10 12 -7 10 2 20 12 22 22 3 11 0 16 -7 12 -6
-4 -11 -2 -11 3 0 13 10 14 28 2z m577 -1 c3 -6 -1 -7 -9 -4 -18 7 -21 14 -7
14 6 0 13 -4 16 -10z m39 -8 c3 -5 -1 -9 -9 -9 -8 0 -15 4 -15 9 0 4 4 8 9 8
6 0 12 -4 15 -8z m-504 -14 c0 -4 -5 -8 -11 -8 -5 0 -7 -5 -3 -12 4 -7 3 -8
-4 -4 -7 4 -12 2 -12 -5 0 -7 -2 -10 -5 -8 -9 10 7 46 21 46 8 0 14 -4 14 -9z
m-300 -24 c0 -14 -12 -19 -23 -8 -9 9 4 35 14 28 5 -3 9 -12 9 -20z m-2971 2
c10 -12 8 -13 -8 -9 -16 4 -24 -3 -37 -30 -10 -20 -21 -34 -26 -31 -4 3 -11
-2 -14 -10 -3 -9 -11 -16 -17 -16 -6 0 -18 -7 -28 -16 -15 -14 -18 -14 -31 1
-7 8 -19 23 -27 31 -13 14 -12 18 10 35 40 31 50 25 23 -17 -20 -29 -11 -43
13 -22 28 24 47 33 38 19 -4 -7 14 8 41 33 26 25 48 46 50 46 1 0 7 -6 13 -14z
m1254 -7 c5 -3 2 -9 -5 -12 -9 -3 -14 3 -15 15 -1 11 1 16 5 12 4 -5 11 -12
15 -15z m-1689 -4 c-7 -16 -24 -21 -24 -6 0 8 7 13 27 20 1 1 0 -6 -3 -14z
m119 -9 c-4 -18 -10 -22 -25 -18 -20 5 -20 6 3 23 13 10 25 19 25 19 1 0 -1
-11 -3 -24z m103 4 c0 -13 -5 -19 -13 -16 -14 6 -55 -33 -47 -45 7 -12 -9 -17
-30 -10 -15 6 -10 14 35 48 30 23 54 42 54 42 1 1 1 -8 1 -19z m110 -7 c-2 -2
-11 0 -20 3 -14 5 -15 9 -5 15 12 7 34 -10 25 -18z m1804 13 c0 -2 -7 -6 -15
-10 -8 -3 -15 -1 -15 4 0 6 7 10 15 10 8 0 15 -2 15 -4z m2222 -24 c-7 -2 -12
-10 -12 -18 0 -9 5 -12 12 -8 7 4 8 3 4 -4 -12 -20 -36 -13 -36 9 0 11 -4 18
-9 14 -5 -3 -12 -1 -16 5 -4 6 6 10 24 10 18 0 31 5 32 13 0 8 3 7 6 -2 3 -8
1 -17 -5 -19z m-2748 -5 c10 -4 17 -10 14 -13 -9 -8 -58 18 -51 29 3 5 8 6 12
0 3 -5 15 -13 25 -16z m-407 -9 c-3 -8 -6 -5 -6 6 -1 11 2 17 5 13 3 -3 4 -12
1 -19z m562 6 c-12 -14 -9 -20 16 -40 27 -21 35 -21 37 3 0 5 9 14 20 21 16
12 24 9 66 -26 55 -45 137 -102 148 -102 4 0 -3 11 -16 25 -12 13 -26 22 -30
20 -4 -3 -10 6 -12 20 -5 22 -1 21 51 -19 82 -62 117 -84 107 -66 -18 31 -40
50 -58 50 -10 0 -17 5 -15 11 1 6 -11 16 -28 23 -16 6 -31 19 -33 29 -5 27 16
20 67 -21 60 -49 188 -141 207 -149 8 -3 14 -9 14 -14 0 -11 -40 11 -57 31 -7
8 -13 12 -13 8 0 -5 -9 1 -21 13 -20 20 -40 22 -46 3 -2 -5 9 -17 24 -27 l28
-17 -29 6 c-22 5 -27 4 -21 -6 5 -8 3 -11 -6 -8 -8 3 -13 15 -11 26 2 12 -2
22 -7 22 -6 0 -11 -7 -11 -15 0 -12 -4 -13 -19 -4 -12 8 -16 19 -13 32 4 14 1
18 -9 15 -8 -3 -13 -11 -12 -17 5 -19 -12 -12 -37 14 -32 34 -50 32 -45 -5 4
-37 -2 -39 -15 -4 -9 22 -13 24 -25 14 -13 -11 -14 -10 -10 2 7 17 -19 43 -34
34 -5 -3 -8 -17 -7 -31 2 -13 -1 -22 -5 -19 -5 3 -9 14 -9 26 0 13 -5 18 -14
15 -8 -3 -17 1 -20 10 -5 11 -2 14 11 9 13 -5 11 0 -6 18 -26 27 -52 37 -31
11 10 -12 10 -15 0 -15 -7 0 -10 -6 -7 -14 3 -8 0 -22 -8 -32 -12 -17 -14 -16
-23 16 -6 19 -11 29 -11 23 -1 -7 -8 -13 -17 -13 -8 0 -12 -4 -9 -10 4 -6 -1
-7 -11 -3 -11 4 -13 8 -6 11 7 2 12 13 12 24 0 14 5 18 15 14 12 -4 13 -2 2
14 -14 23 -32 27 -24 6 6 -16 -14 -28 -29 -18 -13 9 -46 62 -39 62 3 0 17 -7
30 -16 23 -15 25 -15 25 0 0 18 20 45 34 46 5 0 2 -7 -5 -16z m1851 -18 c14
-11 27 -23 30 -24 3 -2 -6 -12 -18 -23 -16 -13 -29 -16 -40 -10 -19 10 -42 4
-42 -10 0 -6 4 -8 9 -5 5 4 7 -3 4 -14 -3 -12 0 -20 6 -20 7 0 10 -4 7 -9 -4
-5 0 -11 6 -14 7 -2 10 -8 6 -12 -4 -4 -15 -2 -25 6 -11 9 -14 10 -9 2 4 -8 2
-13 -4 -13 -6 0 -8 -4 -5 -10 3 -5 1 -10 -5 -10 -7 0 -9 -7 -6 -16 4 -10 2
-13 -7 -7 -6 4 -16 8 -21 8 -5 0 -11 6 -13 13 -3 6 0 12 6 12 7 0 7 8 1 25 -5
14 -6 25 -2 25 5 0 13 -12 18 -27 l10 -28 3 35 c2 19 4 45 4 57 1 11 5 19 9
17 4 -2 9 0 13 6 3 5 -1 10 -9 10 -9 0 -16 5 -16 10 0 6 4 10 9 10 5 0 8 8 6
18 -1 9 0 21 2 25 7 12 44 -2 73 -27z m-2693 -3 c0 -16 -1 -20 -4 -10 -4 15
-7 16 -21 5 -12 -9 -12 -6 2 10 11 12 20 22 20 22 1 0 2 -12 3 -27z m1820 21
c-3 -3 -12 -4 -19 -1 -8 3 -5 6 6 6 11 1 17 -2 13 -5z m60 0 c-3 -3 -12 -4
-19 -1 -8 3 -5 6 6 6 11 1 17 -2 13 -5z m-2748 -26 c-16 -30 -14 -29 -32 -22
-15 5 -14 8 6 25 30 25 40 24 26 -3z m467 0 c-9 -12 -23 -23 -33 -24 -13 -2
-9 5 12 22 37 30 40 30 21 2z m-86 -6 c0 -10 -5 -23 -12 -30 -9 -9 -9 -12 2
-12 7 0 11 -2 8 -5 -7 -7 -58 16 -58 25 0 8 41 39 53 39 4 1 7 -7 7 -17z
m1227 1 c0 -7 -4 -13 -8 -13 -4 0 -9 6 -12 13 -3 8 0 14 7 14 7 0 13 -6 13
-14z m2319 0 c-3 -17 -26 -32 -26 -16 0 8 20 33 26 33 1 0 1 -8 0 -17z m264
-1 c0 -5 7 -17 15 -28 11 -14 14 -15 9 -2 -4 12 -1 16 12 14 10 -2 20 -9 22
-17 3 -12 2 -12 -6 0 -8 11 -11 9 -17 -8 -3 -11 -10 -21 -15 -21 -5 0 -16 -3
-25 -6 -15 -6 -15 -4 -4 15 11 17 11 25 1 41 -7 12 -8 20 -2 20 5 0 10 -4 10
-8z m-1938 -9 c-8 -3 -23 -19 -33 -37 -14 -22 -19 -25 -17 -11 3 21 36 55 53
54 6 0 4 -3 -3 -6z m1630 -33 c6 0 9 -3 5 -6 -3 -3 -15 1 -27 9 -15 10 -18 16
-8 19 7 3 14 -1 16 -9 2 -7 8 -13 14 -13z m395 11 c0 -11 -5 -18 -9 -15 -4 3
-5 11 -1 19 7 21 12 19 10 -4z m-4153 -6 c-4 -8 -11 -15 -16 -15 -6 0 -5 6 2
15 7 8 14 15 16 15 2 0 1 -7 -2 -15z m1506 -11 c0 -2 -9 0 -20 6 -11 6 -20 13
-20 16 0 2 9 0 20 -6 11 -6 20 -13 20 -16z m854 11 c-4 -9 6 -22 28 -35 18
-11 35 -15 36 -10 6 17 18 11 30 -15 11 -24 11 -25 -9 -15 -15 8 -24 8 -33 1
-24 -20 -66 14 -50 40 3 5 1 9 -5 9 -5 0 -13 -5 -17 -11 -4 -8 -9 -8 -17 0
-15 15 -27 14 -27 -2 0 -14 42 -49 74 -60 10 -4 16 -10 13 -13 -3 -3 -14 -1
-26 5 -13 7 -22 8 -26 1 -13 -21 -50 -3 -61 30 -9 28 -13 31 -21 16 -8 -15
-11 -14 -22 10 -12 28 -8 29 42 9 12 -5 17 -2 17 10 0 13 6 16 21 12 13 -4 26
1 37 14 20 23 23 24 16 4z m-2571 -17 c-13 -12 -26 -19 -29 -15 -4 4 1 14 12
22 29 22 41 18 17 -7z m2203 11 c4 -6 53 -42 110 -78 97 -63 101 -67 69 -67
-19 0 -35 3 -35 6 0 4 -11 19 -24 35 -15 17 -26 23 -30 16 -11 -18 -19 -13
-45 25 -13 19 -30 33 -36 30 -7 -2 -17 6 -24 20 -10 24 1 34 15 13z m544 -28
c0 -5 -11 -11 -25 -13 -14 -3 -25 -3 -25 -1 0 3 34 19 48 22 1 1 2 -3 2 -8z
m570 -12 c0 -14 -17 -10 -23 5 -4 10 -1 13 9 9 7 -3 14 -9 14 -14z m637 -1
c-3 -8 -6 -5 -6 6 -1 11 2 17 5 13 3 -3 4 -12 1 -19z m-1591 -4 c19 -13 22
-20 13 -30 -9 -11 -15 -10 -30 10 -31 39 -24 47 17 20z m1128 1 c-4 -8 -8 -15
-10 -15 -2 0 -4 7 -4 15 0 8 4 15 10 15 5 0 7 -7 4 -15z m798 -7 c-7 -7 -12
-8 -12 -2 0 14 12 26 19 19 2 -3 -1 -11 -7 -17z m-547 2 c3 -5 -1 -10 -10 -10
-9 0 -13 5 -10 10 3 6 8 10 10 10 2 0 7 -4 10 -10z m-3725 -10 c0 -5 -5 -10
-11 -10 -5 0 -7 5 -4 10 3 6 8 10 11 10 2 0 4 -4 4 -10z m3352 -14 c7 4 8 2 4
-4 -4 -7 -1 -12 6 -13 10 0 11 -2 0 -6 -10 -4 -10 -8 -1 -19 10 -12 9 -13 -4
-8 -23 8 -39 49 -28 69 3 6 7 2 9 -8 2 -9 8 -14 14 -11z m948 4 c0 -5 -4 -10
-10 -10 -5 0 -10 5 -10 10 0 6 5 10 10 10 6 0 10 -4 10 -10z m-1446 -9 c3 -5
0 -11 -7 -14 -8 -3 -14 1 -14 9 0 16 13 19 21 5z m1346 -19 c0 -15 -2 -15 -10
-2 -6 10 -10 11 -10 3 0 -7 -5 -13 -10 -13 -6 0 -5 8 2 19 14 22 28 18 28 -7z
m88 2 c8 4 12 0 12 -11 0 -14 2 -15 9 -4 7 11 12 8 22 -12 8 -14 17 -26 22
-26 4 -1 12 -1 17 -1 6 0 10 -4 10 -10 0 -5 -6 -7 -14 -4 -13 5 -46 -20 -46
-35 0 -4 -7 -8 -15 -8 -8 0 -15 7 -15 14 0 8 4 12 9 9 5 -3 11 3 14 15 4 16 2
19 -13 14 -10 -3 -21 -1 -24 4 -4 6 -13 8 -20 5 -11 -4 -14 3 -12 28 5 52 5
53 19 33 8 -10 19 -15 25 -11z m-1863 4 c25 -11 32 -23 18 -31 -5 -2 -18 7
-30 20 -25 26 -24 28 12 11z m2165 6 c0 -8 -19 -13 -24 -6 -3 5 1 9 9 9 8 0
15 -2 15 -3z m-1100 -14 c0 -5 -5 -10 -11 -10 -5 0 -7 5 -4 10 3 6 8 10 11 10
2 0 4 -4 4 -10z m-2875 -49 c-8 -17 -18 -31 -22 -31 -13 0 -43 34 -43 49 0 19
51 25 62 8 5 -8 8 -5 9 8 0 11 3 15 5 8 3 -6 -2 -25 -11 -42z m3956 35 c5 3 9
1 9 -4 0 -21 -26 -19 -27 2 0 11 1 15 4 8 3 -6 9 -10 14 -6z m-1956 -6 c3 -5
2 -10 -4 -10 -5 0 -13 5 -16 10 -3 6 -2 10 4 10 5 0 13 -4 16 -10z m45 -6 c0
-2 -7 -4 -15 -4 -8 0 -15 4 -15 10 0 5 7 7 15 4 8 -4 15 -8 15 -10z m1066 -44
c-1 -29 -37 -36 -42 -7 -1 9 1 17 6 17 4 0 11 7 14 16 3 8 2 12 -4 9 -6 -3
-10 -2 -10 4 0 5 6 11 13 14 14 5 24 -18 23 -53z m-1626 29 c0 -6 -4 -7 -10
-4 -5 3 -10 11 -10 16 0 6 5 7 10 4 6 -3 10 -11 10 -16z m387 15 c-3 -3 -12
-4 -19 -1 -8 3 -5 6 6 6 11 1 17 -2 13 -5z m1683 -4 c0 -5 -5 -10 -11 -10 -5
0 -7 5 -4 10 3 6 8 10 11 10 2 0 4 -4 4 -10z m60 -6 c0 -2 -7 -4 -15 -4 -8 0
-15 4 -15 10 0 5 7 7 15 4 8 -4 15 -8 15 -10z m-3823 -16 c-3 -8 -6 -5 -6 6
-1 11 2 17 5 13 3 -3 4 -12 1 -19z m-116 -21 c-8 -8 -11 -7 -11 4 0 20 13 34
18 19 3 -7 -1 -17 -7 -23z m54 24 c3 -5 1 -12 -5 -16 -5 -3 -10 1 -10 9 0 18
6 21 15 7z m2195 5 c0 -11 -19 -15 -25 -6 -3 5 1 10 9 10 9 0 16 -2 16 -4z
m-2348 -32 c-3 -18 -7 -22 -13 -13 -4 7 -3 19 3 26 15 18 16 17 10 -13z m3987
9 c-7 -10 -15 -20 -16 -22 -2 -2 -3 5 -3 17 0 14 6 22 16 22 14 0 15 -3 3 -17z
m-3939 -3 c0 -5 -4 -10 -10 -10 -5 0 -10 5 -10 10 0 6 5 10 10 10 6 0 10 -4
10 -10z m2035 0 c3 -5 2 -10 -4 -10 -5 0 -13 5 -16 10 -3 6 -2 10 4 10 5 0 13
-4 16 -10z m175 0 c13 -8 13 -10 -2 -10 -9 0 -20 5 -23 10 -8 13 5 13 25 0z
m1774 -2 c-5 -7 -2 -9 8 -5 11 4 18 -2 22 -16 5 -19 8 -20 17 -7 9 13 10 13 6
-2 -3 -9 -1 -18 6 -21 6 -2 3 -6 -7 -10 -9 -4 -15 -3 -11 2 3 5 -5 17 -17 26
-21 14 -24 14 -35 -2 -16 -21 -17 -53 -2 -53 5 0 8 4 5 8 -2 4 4 8 15 8 24 0
24 -3 -3 -17 -18 -9 -24 -8 -34 6 -7 9 -10 23 -7 31 3 9 -1 14 -11 14 -14 0
-14 2 -4 14 7 7 19 11 26 9 7 -3 12 -2 11 3 -3 16 1 24 12 24 5 0 7 -5 3 -12z
m-2138 -30 c3 -11 3 -22 0 -25 -3 -4 -6 1 -6 10 0 10 -7 17 -15 17 -8 0 -15 7
-15 15 0 20 28 8 36 -17z m1338 20 c-3 -4 -9 -8 -15 -8 -5 0 -9 4 -9 8 0 5 7
9 15 9 8 0 12 -4 9 -9z m-1054 -8 c13 -8 13 -10 -2 -10 -9 0 -20 5 -23 10 -8
13 5 13 25 0z m2060 6 c0 -2 -7 -7 -16 -10 -8 -3 -12 -2 -9 4 6 10 25 14 25 6z
m-1060 -35 c-10 -20 -30 -37 -30 -27 0 6 33 46 38 46 1 0 -2 -9 -8 -19z m70 3
c0 -2 -7 -4 -15 -4 -8 0 -15 4 -15 10 0 5 7 7 15 4 8 -4 15 -8 15 -10z m-1035
-4 c3 -5 1 -10 -4 -10 -6 0 -11 5 -11 10 0 6 2 10 4 10 3 0 8 -4 11 -10z
m1290 -10 c-3 -14 5 -25 23 -36 l27 -15 -27 6 c-16 3 -28 1 -28 -4 0 -5 -9 -7
-19 -4 -19 5 -19 7 -4 39 18 37 34 45 28 14z m1245 16 c0 -3 -4 -8 -10 -11 -5
-3 -10 -1 -10 4 0 6 5 11 10 11 6 0 10 -2 10 -4z m-1542 -31 c-3 -3 -9 2 -12
12 -6 14 -5 15 5 6 7 -7 10 -15 7 -18z m582 -45 c0 -5 -2 -10 -4 -10 -3 0 -8
5 -11 10 -3 6 -1 10 4 10 6 0 11 -4 11 -10z m290 0 c0 -5 -2 -10 -4 -10 -3 0
-8 5 -11 10 -3 6 -1 10 4 10 6 0 11 -4 11 -10z m-871 -16 c13 8 14 -3 2 -22
-6 -11 -10 -10 -15 4 -6 16 -7 16 -20 -1 -12 -16 -13 -17 -19 -1 -4 10 -3 15
3 11 6 -3 13 1 16 10 5 12 9 13 14 5 4 -7 13 -9 19 -6z m58 -16 c-3 -8 -6 -5
-6 6 -1 11 2 17 5 13 3 -3 4 -12 1 -19z m130 0 c-3 -8 -6 -5 -6 6 -1 11 2 17
5 13 3 -3 4 -12 1 -19z m287 3 c3 -4 2 -12 -2 -18 -5 -7 -13 -3 -24 12 -17 22
-17 23 2 18 11 -3 22 -8 24 -12z m76 -2 c0 -6 -4 -7 -10 -4 -5 3 -10 11 -10
16 0 6 5 7 10 4 6 -3 10 -11 10 -16z m-42 -14 c-3 -3 -9 2 -12 12 -6 14 -5 15
5 6 7 -7 10 -15 7 -18z m371 22 c-2 -2 -11 -8 -20 -15 -12 -9 -16 -9 -16 1 0
7 9 14 20 14 11 1 18 1 16 0z m-119 -26 c0 -5 -7 -12 -16 -15 -14 -5 -15 -4
-4 9 14 17 20 19 20 6z m-177 -18 c-3 -7 -6 -13 -8 -13 -2 0 -5 6 -8 13 -3 8
1 14 8 14 7 0 11 -6 8 -14z m277 -2 c0 -6 -4 -13 -10 -16 -5 -3 -10 1 -10 9 0
9 5 16 10 16 6 0 10 -4 10 -9z m-56 -64 c25 -23 32 -25 34 -13 2 9 8 16 13 16
12 0 11 -14 -2 -27 -14 -14 -40 -5 -58 20 -8 11 -21 17 -32 14 -11 -3 -22 -1
-25 4 -3 5 -10 7 -15 4 -5 -4 -9 4 -9 16 0 21 1 21 26 4 26 -16 26 -16 19 7
-6 22 -5 22 6 3 7 -11 26 -33 43 -48z m-994 43 c0 -5 -2 -10 -4 -10 -3 0 -8 5
-11 10 -3 6 -1 10 4 10 6 0 11 -4 11 -10z m125 -14 c0 -15 -4 -21 -9 -16 -5 5
-6 16 -3 24 9 22 12 20 12 -8z m892 -6 c-1 -20 -8 -25 -20 -14 -3 3 0 12 6 20
16 17 16 17 14 -6z m-348 -45 c-7 -6 -13 -5 -18 4 -5 8 -16 11 -29 7 -13 -5
-22 -1 -26 10 -5 13 -1 15 19 12 14 -3 28 -1 31 4 3 5 12 1 19 -9 9 -12 10
-21 4 -28z m274 -6 c3 -12 10 -18 15 -15 5 3 12 -5 14 -19 3 -13 1 -22 -3 -19
-5 3 -9 -1 -9 -9 0 -8 -7 -20 -15 -27 -13 -11 -14 -10 -9 4 4 11 -1 19 -17 25
-13 5 -20 10 -15 10 5 1 2 9 -5 18 -12 14 -12 16 1 9 9 -4 8 -1 -2 7 -24 19
-23 30 2 17 16 -9 20 -8 20 5 0 22 17 18 23 -6z m159 -11 c-7 -7 -12 -8 -12
-2 0 14 12 26 19 19 2 -3 -1 -11 -7 -17z m-548 4 c2 -4 1 -13 -3 -20 -4 -8
-11 -5 -19 8 -10 16 -10 20 2 20 8 0 17 -4 20 -8z m533 -17 c6 -14 7 -23 3
-20 -9 6 -23 -12 -26 -33 -2 -8 -6 -17 -10 -20 -4 -4 -4 1 -1 10 12 33 -38 25
-71 -12 -11 -13 -11 -12 -2 8 6 12 18 22 27 22 14 0 14 2 -3 16 -10 8 -14 13
-7 10 6 -4 14 -2 18 4 6 9 -7 14 -27 11 -5 0 -8 4 -8 9 0 17 38 11 48 -7 9
-14 11 -14 21 5 15 28 23 28 38 -3z m-380 0 c0 -8 -4 -12 -9 -9 -5 3 -6 10 -3
15 9 13 12 11 12 -6z m-110 -1 c-3 -3 -12 -4 -19 -1 -8 3 -5 6 6 6 11 1 17 -2
13 -5z m138 -3 c-3 -5 -1 -12 4 -15 10 -6 3 -46 -8 -46 -11 0 -26 15 -29 28
-1 8 2 11 8 7 5 -3 10 3 10 14 0 12 5 21 11 21 5 0 8 -4 4 -9z m-2870 -41 c-3
-5 -12 -10 -20 -10 -8 0 -11 -7 -8 -21 5 -19 4 -20 -15 -8 -15 10 -18 16 -9
21 9 6 8 8 -3 9 -8 0 -4 5 10 9 36 11 52 11 45 0z m2675 0 c0 -5 -4 -10 -10
-10 -5 0 -10 5 -10 10 0 6 5 10 10 10 6 0 10 -4 10 -10z m112 -8 c-7 -2 -9 -8
-6 -13 3 -6 -2 -19 -11 -29 -17 -19 -14 -57 4 -45 14 8 23 -12 15 -37 -6 -20
-8 -18 -25 17 -11 21 -17 47 -13 57 6 19 -10 25 -21 8 -3 -5 -11 -10 -16 -10
-5 0 5 15 23 33 18 18 40 31 47 28 10 -3 11 -6 3 -9z m-2772 -11 c0 -5 -7 -12
-16 -15 -14 -5 -15 -4 -4 9 14 17 20 19 20 6z m2600 -46 c0 -5 -5 -3 -10 5 -5
8 -10 20 -10 25 0 6 5 3 10 -5 5 -8 10 -19 10 -25z m-2710 -85 c0 -60 -4 -100
-10 -100 -6 0 -10 27 -10 63 0 61 9 137 16 137 2 0 4 -45 4 -100z m2890 81 c0
-4 -6 -8 -14 -8 -8 0 -12 6 -9 14 5 13 23 9 23 -6z m-2680 -17 c0 -8 -7 -14
-15 -14 -15 0 -21 21 -9 33 10 9 24 -2 24 -19z m2807 20 c-3 -3 -12 -4 -19 -1
-8 3 -5 6 6 6 11 1 17 -2 13 -5z m-352 -22 c-3 -3 -11 0 -18 7 -9 10 -8 11 6
5 10 -3 15 -9 12 -12z m1345 3 c0 -11 -29 -11 -33 -1 -4 10 1 12 14 9 10 -3
19 -7 19 -8z m-4340 -39 c8 -25 8 -46 0 -74 -8 -33 -14 -40 -34 -38 -13 0 -22
4 -19 9 8 14 -26 7 -41 -8 -10 -11 -35 -16 -78 -16 -35 0 -81 -1 -102 -2 -36
-2 -40 1 -48 28 -11 38 -4 64 22 93 18 19 24 20 42 9 12 -6 30 -20 40 -29 23
-23 60 -24 51 -2 -5 13 -7 13 -14 2 -6 -9 -9 -9 -9 -1 0 19 21 27 31 12 7 -11
9 -10 9 4 0 12 8 17 28 16 22 0 24 -2 8 -8 -31 -12 -36 -43 -10 -63 12 -10 26
-18 31 -18 4 0 1 5 -7 10 -12 8 -9 10 12 10 15 0 30 5 33 10 3 6 18 7 32 4 19
-5 24 -3 21 7 -3 8 -11 14 -19 14 -23 0 -15 63 8 65 1 0 7 -15 13 -34z m267
12 c-3 -8 -6 -5 -6 6 -1 11 2 17 5 13 3 -3 4 -12 1 -19z m603 2 c-8 -15 -7
-26 2 -42 6 -13 13 -27 14 -33 20 -78 12 -97 -23 -59 -17 19 -23 33 -18 48 4
11 6 30 6 41 -2 32 9 65 20 65 6 0 6 -7 -1 -20z m1746 1 c1 -6 0 -7 -2 -2 -3
6 -12 7 -20 4 -8 -3 -14 -1 -14 5 0 14 33 8 36 -7z m308 4 c3 -8 1 -15 -4 -15
-6 0 -10 7 -10 15 0 8 2 15 4 15 2 0 6 -7 10 -15z m-2487 -1 c-3 -3 -12 -4
-19 -1 -8 3 -5 6 6 6 11 1 17 -2 13 -5z m109 -19 c8 -19 -3 -65 -16 -65 -13 0
-22 37 -15 60 8 24 23 26 31 5z m-486 -5 c0 -5 -5 -10 -11 -10 -5 0 -7 5 -4
10 3 6 8 10 11 10 2 0 4 -4 4 -10z m202 -37 c7 -9 2 -10 -21 -3 -17 5 -33 5
-36 0 -7 -11 24 -22 37 -13 7 3 8 1 4 -6 -6 -9 0 -10 20 -5 19 5 25 4 20 -5
-4 -6 -2 -11 4 -11 6 0 10 -8 8 -17 -2 -13 -14 -18 -38 -20 -32 -1 -110 -8
-202 -17 -37 -4 -58 7 -38 19 5 3 10 11 10 16 0 6 -4 8 -9 5 -5 -4 -7 3 -4 14
4 16 8 18 19 9 8 -7 11 -21 8 -35 -4 -15 -2 -24 6 -24 6 0 8 5 4 12 -5 7 -3 8
6 3 8 -5 11 -4 7 3 -4 5 -3 21 2 34 9 20 10 21 10 3 1 -16 6 -12 22 15 27 44
26 43 39 35 7 -4 1 -14 -15 -27 -14 -11 -24 -23 -21 -26 9 -8 76 48 76 63 0
12 4 12 28 -1 25 -13 27 -13 31 9 4 20 5 21 9 2 2 -11 9 -25 14 -32z m138 37
c0 -5 -2 -10 -4 -10 -3 0 -8 5 -11 10 -3 6 -1 10 4 10 6 0 11 -4 11 -10z m40
0 c0 -5 -7 -10 -15 -10 -8 0 -15 5 -15 10 0 6 7 10 15 10 8 0 15 -4 15 -10z
m170 2 c0 -5 -9 -17 -20 -27 -20 -18 -20 -18 -18 8 2 18 8 27 20 27 10 0 18
-4 18 -8z m-440 -23 c0 -4 -7 -6 -15 -3 -8 4 -15 10 -15 15 0 4 7 6 15 3 8 -4
15 -10 15 -15z m836 6 c-3 -8 -1 -15 5 -15 6 0 7 -4 4 -10 -3 -5 -2 -10 3 -10
5 0 12 -13 15 -29 5 -22 11 -28 29 -27 13 1 22 7 21 14 -4 15 7 15 41 2 14 -5
26 -14 26 -20 0 -6 -5 -8 -12 -4 -8 5 -9 2 -4 -11 6 -16 1 -17 -60 -11 -37 4
-71 9 -75 12 -15 9 -21 82 -7 103 15 24 23 28 14 6z m1901 -7 c-3 -8 -6 -5 -6
6 -1 11 2 17 5 13 3 -3 4 -12 1 -19z m35 0 c-6 -6 -8 -18 -5 -27 4 -14 3 -14
-6 1 -13 19 -4 51 11 42 6 -4 6 -10 0 -16z m114 -7 c-4 -6 -13 -11 -19 -10 -9
0 -9 2 0 5 7 3 9 13 6 22 -5 13 -3 14 7 5 7 -6 9 -16 6 -22z m-3668 -39 c5
-37 16 -46 41 -33 14 8 21 8 21 1 0 -5 4 -10 10 -10 5 0 7 6 4 14 -3 8 -1 17
4 20 6 3 13 -6 17 -21 6 -24 8 -26 16 -10 11 19 39 23 39 6 0 -6 8 -9 17 -7
10 2 18 11 18 21 0 27 20 20 23 -9 4 -34 26 -56 46 -48 10 4 16 1 16 -8 0 -14
-24 -18 -155 -23 -27 -1 -65 -5 -82 -9 -33 -8 -33 -7 -35 31 l-1 38 -4 -37
c-2 -21 -9 -38 -14 -38 -6 0 -8 12 -5 28 3 15 7 51 8 79 2 55 9 62 16 15z
m3772 -19 c0 -7 5 -13 10 -13 6 0 10 -4 10 -10 0 -5 -4 -9 -9 -7 -5 1 -9 -2
-9 -8 0 -5 3 -9 7 -8 4 1 5 -11 3 -28 -5 -36 -15 -37 -36 -4 -9 14 -22 23 -28
19 -7 -4 -8 -3 -4 4 4 6 13 9 21 6 10 -4 12 0 8 17 -4 13 -8 18 -11 11 -9 -28
-20 -9 -17 31 2 23 4 43 4 44 3 8 51 -43 51 -54z m-530 37 c0 -5 -4 -10 -9
-10 -6 0 -13 5 -16 10 -3 6 1 10 9 10 9 0 16 -4 16 -10z m-2570 -15 c0 -8 -2
-15 -4 -15 -2 0 -6 7 -10 15 -3 8 -1 15 4 15 6 0 10 -7 10 -15z m874 -57 c-11
-17 -20 -7 -18 20 3 52 6 57 14 22 5 -19 6 -38 4 -42z m1914 47 c0 -14 -4 -25
-8 -25 -6 0 -7 37 -1 48 4 9 9 -2 9 -23z m25 10 c-3 -9 -8 -14 -10 -11 -3 3
-2 9 2 15 9 16 15 13 8 -4z m124 -1 c-3 -3 -12 -4 -19 -1 -8 3 -5 6 6 6 11 1
17 -2 13 -5z m-2442 -14 c40 -15 20 -30 -41 -30 -56 0 -65 12 -20 30 28 12 31
12 61 0z m157 -42 c-8 -8 -9 -4 -5 13 4 13 8 18 11 10 2 -7 -1 -18 -6 -23z
m1721 -2 c-3 -4 -9 -2 -14 5 -13 22 -11 31 5 17 8 -7 12 -17 9 -22z m931 18
c3 -8 2 -12 -4 -9 -6 3 -10 10 -10 16 0 14 7 11 14 -7z m-4007 -28 c-4 -9 -11
-16 -16 -16 -15 0 -23 33 -9 41 17 11 32 -5 25 -25z m300 20 c-5 -16 -27 -19
-27 -3 0 7 7 14 15 14 9 0 14 -5 12 -11z m1593 -28 c0 -20 -44 -25 -70 -8 -13
8 -13 10 1 10 9 0 19 9 22 21 5 18 8 19 26 7 12 -7 21 -21 21 -30z m1704 21
c-8 -14 -21 -11 -21 5 0 8 6 12 14 9 7 -3 10 -9 7 -14z m-1607 -15 c-9 -9 -28
6 -21 18 4 6 10 6 17 -1 6 -6 8 -13 4 -17z m1643 -7 c12 3 20 0 20 -7 0 -7 -7
-10 -15 -6 -9 3 -15 0 -15 -10 0 -9 6 -14 13 -11 7 3 13 -3 13 -13 0 -10 -5
-18 -10 -17 -6 1 -10 -3 -11 -10 -1 -29 -10 -17 -11 15 0 20 -6 38 -12 40 -6
2 -8 11 -5 20 4 9 8 11 10 5 2 -6 13 -9 23 -6z m-2451 -52 c1 6 5 4 9 -3 5 -7
7 -26 4 -42 -3 -22 -10 -30 -24 -30 -16 0 -19 5 -14 23 3 12 6 38 7 57 1 32 2
33 9 10 4 -14 9 -20 9 -15z m2394 18 c-4 -11 -3 -14 6 -9 10 6 10 4 0 -12 -13
-21 -29 -20 -29 2 0 10 19 36 27 36 1 0 -1 -7 -4 -17z m-2546 -25 c-3 -8 -6
-5 -6 6 -1 11 2 17 5 13 3 -3 4 -12 1 -19z m2367 -20 c-3 -4 -1 -8 4 -8 6 0
12 -7 16 -15 7 -19 1 -19 -18 1 -9 8 -16 25 -16 37 0 17 2 19 9 7 6 -8 7 -18
5 -22z m154 2 c7 -11 8 -20 3 -20 -5 0 -12 7 -15 16 -3 8 -11 12 -17 8 -8 -4
-9 -3 -5 4 10 17 19 15 34 -8z m147 -17 c-2 -10 -4 -20 -4 -22 -1 -3 -6 0 -12
6 -6 6 -8 16 -5 22 11 17 25 13 21 -6z m835 2 c0 -8 -2 -15 -4 -15 -2 0 -6 7
-10 15 -3 8 -1 15 4 15 6 0 10 -7 10 -15z m-1070 -10 c0 -8 -2 -15 -4 -15 -2
0 -6 7 -10 15 -3 8 -1 15 4 15 6 0 10 -7 10 -15z m68 -20 c-3 -3 -9 2 -12 12
-6 14 -5 15 5 6 7 -7 10 -15 7 -18z m44 4 c2 -2 1 -3 -1 -2 -2 2 -9 -2 -16 -7
-8 -7 -12 -5 -12 4 0 12 22 16 29 5z m-2519 -34 c4 -15 5 -13 6 8 2 39 31 37
31 -3 0 -29 -2 -30 -45 -30 -35 0 -45 4 -45 16 0 14 3 14 15 4 9 -7 18 -10 22
-6 3 3 2 6 -4 6 -6 0 -9 9 -6 21 6 22 18 15 26 -16z m3558 8 c13 -16 12 -17
-3 -4 -17 13 -22 21 -14 21 2 0 10 -8 17 -17z m-541 -24 c0 -11 -4 -18 -10
-14 -5 3 -7 12 -3 20 7 21 13 19 13 -6z m450 -14 c0 -5 -5 -3 -10 5 -5 8 -10
20 -10 25 0 6 5 3 10 -5 5 -8 10 -19 10 -25z m-2033 -4 c3 -24 3 -24 -17 -6
-24 22 -26 38 -3 33 9 -2 18 -14 20 -27z m1434 -18 c-8 -15 -10 -11 -9 15 1
26 3 30 10 18 5 -10 5 -23 -1 -33z m-531 23 c0 -3 -4 -8 -10 -11 -5 -3 -10 -1
-10 4 0 6 5 11 10 11 6 0 10 -2 10 -4z m-965 -15 c-3 -5 -1 -12 4 -16 6 -3 8
-12 4 -20 -3 -11 -1 -13 10 -9 16 6 18 -19 2 -33 -4 -4 -5 -2 0 6 5 9 4 12 -3
7 -13 -8 -9 -50 7 -69 9 -12 8 -16 -5 -21 -12 -4 -15 -2 -10 9 3 8 1 15 -4 15
-9 0 -14 -20 -12 -41 1 -11 -47 -4 -60 9 -30 30 -35 2 -5 -32 21 -24 21 -32 2
-40 -17 -6 -22 2 -29 49 -2 17 -5 32 -5 35 -1 3 -5 -1 -9 -7 -6 -10 -8 48 -3
77 1 3 15 7 31 8 25 2 30 -1 30 -21 0 -13 -6 -29 -12 -36 -10 -11 -10 -13 0
-7 8 5 12 0 12 -12 0 -22 27 -25 35 -4 3 7 0 21 -5 30 -9 14 -10 12 -4 -8 4
-17 3 -22 -4 -15 -9 9 -16 71 -13 113 1 6 10 12 21 12 11 0 19 3 19 8 -2 12 1
22 7 22 3 0 3 -4 -1 -9z m1315 -46 c5 3 11 -4 15 -15 7 -21 25 -28 25 -8 0 6
3 8 7 4 13 -13 -25 -34 -52 -29 -26 5 -46 44 -26 51 6 2 12 11 12 20 1 10 4 7
6 -6 2 -12 8 -20 13 -17z m760 10 c0 -3 -8 -5 -18 -5 -10 0 -19 7 -19 14 0 11
5 13 19 5 10 -5 18 -12 18 -14z m-1990 -30 c4 3 14 -2 21 -11 10 -13 10 -17
-2 -25 -11 -7 -11 -9 4 -9 9 0 17 -7 17 -15 0 -9 6 -12 15 -9 8 4 15 1 15 -6
0 -6 -4 -9 -8 -6 -4 2 -14 1 -22 -4 -17 -11 -40 12 -40 41 0 17 -3 19 -13 10
-16 -13 -30 -3 -19 13 4 6 7 14 8 19 4 19 6 21 11 9 2 -6 8 -10 13 -7z m2010
-6 c0 -6 -4 -7 -10 -4 -5 3 -10 11 -10 16 0 6 5 7 10 4 6 -3 10 -11 10 -16z
m-2440 -29 c-13 -9 -7 -14 13 -11 12 2 8 -27 -5 -32 -9 -4 -8 -6 2 -6 8 -1 21
-11 29 -22 18 -29 32 -7 21 32 -8 27 3 49 17 35 4 -3 2 -6 -4 -6 -6 0 -9 -9
-6 -19 3 -12 11 -17 19 -14 8 3 14 -1 14 -11 0 -9 -7 -19 -15 -22 -8 -4 -12
-10 -9 -15 3 -5 9 -7 13 -5 4 3 8 -1 8 -8 0 -8 -6 -12 -14 -9 -7 3 -13 0 -13
-6 0 -6 4 -11 10 -11 5 0 7 -7 4 -15 -4 -8 -11 -12 -17 -8 -6 4 -8 0 -4 -10 3
-10 2 -17 -3 -17 -6 0 -10 6 -11 13 0 10 -2 10 -6 0 -2 -7 -10 -13 -15 -13 -6
0 -9 3 -5 6 3 4 0 22 -8 40 -8 19 -11 33 -7 33 20 -3 32 2 27 11 -4 6 -9 8
-13 6 -16 -10 -37 22 -38 57 -1 28 3 37 15 37 14 0 14 -2 1 -10z m420 -56 c0
-20 -7 -17 -20 6 -9 16 -8 18 5 14 8 -4 15 -12 15 -20z m-960 -6 l9 -23 0 23
c1 13 7 22 16 22 18 0 19 -12 3 -28 -9 -9 -9 -15 0 -24 11 -11 18 -128 8 -128
-17 0 -36 15 -36 28 0 12 -3 13 -12 4 -9 -9 -9 -18 0 -37 7 -15 8 -25 2 -25
-6 0 -10 5 -10 10 0 6 -5 10 -10 10 -7 0 -7 -6 -1 -19 8 -15 7 -20 -6 -26 -15
-5 -15 -7 -3 -15 13 -8 12 -10 -2 -10 -20 0 -44 23 -53 50 -4 11 -11 18 -16
15 -5 -4 -9 -4 -9 -1 0 3 15 12 33 20 31 12 33 17 29 47 -3 19 -10 37 -16 41
-8 5 -7 8 2 8 6 0 12 5 12 10 0 6 -7 10 -15 10 -8 0 -15 -4 -15 -10 0 -5 -10
-14 -22 -21 -19 -10 -20 -9 -14 7 16 39 15 54 -2 54 -15 0 -15 2 -2 10 8 5 26
10 40 10 20 0 22 -2 10 -10 -13 -8 -13 -10 1 -10 9 0 19 7 23 15 8 23 45 18
56 -7z m1261 9 c-6 -6 -5 -19 1 -33 8 -18 8 -27 -2 -39 -17 -21 -28 -5 -28 46
-1 31 3 37 19 36 11 -1 15 -5 10 -10z m49 -17 c0 -20 -5 -30 -15 -30 -13 0
-14 4 -4 22 10 18 9 20 -7 14 -18 -6 -18 -5 0 9 26 20 26 20 26 -15z m-235
-10 c-4 -12 -9 -19 -12 -17 -3 3 -2 15 2 27 4 12 9 19 12 17 3 -3 2 -15 -2
-27z m-1225 -1 c0 -10 -5 -19 -12 -19 -6 0 -3 -7 8 -16 15 -13 13 -12 -10 1
-24 14 -28 15 -23 2 3 -9 -3 -19 -19 -26 -14 -6 -23 -7 -20 -2 3 5 -4 11 -16
14 -18 5 -19 8 -8 21 10 13 10 16 -1 16 -11 0 -11 2 1 10 11 7 17 5 22 -8 4
-10 7 -11 7 -4 1 8 6 10 14 6 9 -6 9 -4 -1 8 -11 14 -8 16 23 16 28 0 35 -4
35 -19z m1067 -1 c-3 -8 -6 -5 -6 6 -1 11 2 17 5 13 3 -3 4 -12 1 -19z m243 2
c-7 -5 -9 -14 -5 -21 6 -11 5 -11 -5 -2 -15 14 -5 47 11 37 8 -5 8 -9 -1 -14z
m-160 6 c0 -3 -4 -8 -10 -11 -5 -3 -10 -1 -10 4 0 6 5 11 10 11 6 0 10 -2 10
-4z m810 -26 c0 -11 -4 -20 -10 -20 -5 0 -10 4 -10 10 0 5 -7 7 -15 4 -15 -6
-21 7 -8 19 15 15 43 7 43 -13z m-420 -14 c0 -2 -7 -7 -16 -10 -8 -3 -12 -2
-9 4 3 6 -4 10 -17 10 -18 0 -20 2 -9 9 13 8 51 -2 51 -13z m357 17 c-4 -3 -1
-13 6 -21 11 -13 9 -14 -10 -1 -16 9 -19 16 -10 21 15 9 23 10 14 1z m127 -15
c-4 -6 -1 -14 6 -18 7 -4 9 -13 6 -19 -13 -20 -21 -11 -24 25 -1 22 2 33 8 29
6 -4 7 -11 4 -17z m-869 -8 c11 -5 14 -9 7 -9 -7 -1 -10 -5 -7 -11 3 -5 23 -7
43 -4 32 5 35 4 21 -8 -9 -7 -19 -20 -22 -28 -4 -10 -6 -7 -6 7 -1 14 -6 21
-14 17 -7 -2 -23 7 -35 21 -23 26 -20 29 13 15z m161 -8 c-10 -2 -22 0 -28 6
-6 6 0 7 19 4 21 -5 23 -7 9 -10z m-848 -25 c2 -10 -2 -17 -8 -17 -7 0 -9 7
-6 16 5 14 4 15 -9 4 -12 -10 -15 -10 -15 3 0 20 34 15 38 -6z m-588 -20 c0
-8 3 -8 9 1 7 11 9 11 14 -1 3 -8 0 -20 -6 -26 -6 -6 -7 -11 -1 -11 5 0 18 10
29 23 18 20 20 20 23 4 5 -25 -1 -29 -42 -30 -20 -1 -38 -7 -41 -15 -7 -19
-25 -5 -25 19 0 11 5 17 10 14 6 -3 10 -4 10 -1 0 2 3 12 6 20 5 12 2 15 -10
10 -11 -4 -16 -1 -16 10 0 14 4 15 20 6 11 -6 20 -16 20 -23z m1445 -17 c-3
-6 -1 -10 4 -10 6 0 11 -10 10 -22 0 -13 -3 -17 -6 -10 -2 6 -9 10 -14 6 -5
-3 -9 3 -10 13 0 10 -2 31 -4 47 -4 28 -4 29 11 7 8 -11 12 -26 9 -31z m15 36
c0 -8 4 -16 9 -18 13 -4 18 -22 7 -26 -5 -2 -15 10 -22 27 -7 17 -9 31 -4 31
6 0 10 -6 10 -14z m-2503 -2 c-3 -3 -12 -4 -19 -1 -8 3 -5 6 6 6 11 1 17 -2
13 -5z m1198 -4 c3 -5 1 -10 -4 -10 -6 0 -11 5 -11 10 0 6 2 10 4 10 3 0 8 -4
11 -10z m659 -36 c2 -21 2 -33 -1 -26 -2 6 -8 10 -12 8 -4 -3 -6 5 -5 17 1 12
3 28 3 36 2 26 11 5 15 -35z m95 9 c-1 -33 -2 -35 -8 -13 -4 14 -6 31 -3 38 8
22 12 13 11 -25z m205 29 c3 -5 -1 -9 -9 -9 -8 0 -12 4 -9 9 3 4 7 8 9 8 2 0
6 -4 9 -8z m146 -16 c0 -3 -4 -8 -10 -11 -5 -3 -10 -1 -10 4 0 6 5 11 10 11 6
0 10 -2 10 -4z m255 -16 c3 -5 1 -10 -4 -10 -6 0 -11 5 -11 10 0 6 2 10 4 10
3 0 8 -4 11 -10z m-931 -24 c-3 -9 -13 -16 -22 -16 -13 0 -12 3 4 19 22 21 27
21 18 -3z m980 9 c-4 -8 -11 -12 -16 -9 -6 4 -5 10 3 15 19 12 19 11 13 -6z
m-2064 -5 c0 -5 -2 -10 -4 -10 -3 0 -8 5 -11 10 -3 6 -1 10 4 10 6 0 11 -4 11
-10z m1150 -10 c0 -5 -4 -10 -10 -10 -5 0 -10 5 -10 10 0 6 5 10 10 10 6 0 10
-4 10 -10z m870 6 c0 -2 -8 -10 -17 -17 -16 -13 -17 -12 -4 4 13 16 21 21 21
13z m-730 -21 c0 -12 -19 -12 -23 0 -4 9 -1 12 9 8 7 -3 14 -7 14 -8z m365 5
c-4 -6 -1 -19 6 -28 12 -16 12 -16 -5 0 -16 14 -15 38 0 38 3 0 2 -5 -1 -10z
m405 -4 c0 -3 -4 -8 -10 -11 -5 -3 -10 -1 -10 4 0 6 5 11 10 11 6 0 10 -2 10
-4z m-1539 -29 c-10 -9 -11 -8 -5 6 3 10 9 15 12 12 3 -3 0 -11 -7 -18z m810
6 c13 -16 12 -17 -3 -4 -17 13 -22 21 -14 21 2 0 10 -8 17 -17z m-732 -12 c7
-5 9 -11 5 -14 -5 -3 -15 1 -22 9 -14 16 -5 18 17 5z m821 -15 c0 -11 -19 -15
-25 -6 -3 5 1 10 9 10 9 0 16 -2 16 -4z m587 -11 c0 -8 -4 -12 -9 -9 -4 3 -8
9 -8 15 0 5 4 9 8 9 5 0 9 -7 9 -15z m-2290 -1 c-3 -3 -12 -4 -19 -1 -8 3 -5
6 6 6 11 1 17 -2 13 -5z m-283 -20 c5 -14 4 -15 -9 -4 -17 14 -19 20 -6 20 5
0 12 -7 15 -16z m1313 -76 c-2 -18 -4 -6 -4 27 0 33 2 48 4 33 2 -15 2 -42 0
-60z m883 50 c0 -5 -9 -4 -20 2 -11 6 -20 12 -20 14 0 2 9 2 20 -1 11 -3 20
-9 20 -15z m-243 -19 c-4 -22 -13 -34 -14 -16 0 6 -4 20 -8 30 -6 13 -3 16 9
11 8 -3 14 -14 13 -25z m984 8 c-10 -9 -11 -8 -5 6 3 10 9 15 12 12 3 -3 0
-11 -7 -18z m-1657 -6 c3 -5 -1 -11 -9 -14 -9 -4 -12 -1 -8 9 6 16 10 17 17 5z
m2927 -14 c-10 -9 -11 -8 -5 6 3 10 9 15 12 12 3 -3 0 -11 -7 -18z m92 -14
c-3 -6 -11 -9 -19 -6 -20 7 -17 19 5 19 11 0 17 -6 14 -13z m-222 -24 c-5 -13
-10 -19 -10 -12 -1 15 10 45 15 40 3 -2 0 -15 -5 -28z m279 11 c0 -11 -2 -20
-4 -20 -2 0 -6 9 -9 20 -3 11 -1 20 4 20 5 0 9 -9 9 -20z m-3080 0 c0 -5 -2
-10 -4 -10 -3 0 -8 5 -11 10 -3 6 -1 10 4 10 6 0 11 -4 11 -10z m2947 -17
c-11 -3 -16 -11 -13 -18 3 -9 0 -12 -10 -8 -28 10 -10 32 26 31 9 0 8 -2 -3
-5z m408 -3 c-3 -5 -12 -10 -18 -10 -7 0 -6 4 3 10 19 12 23 12 15 0z m-4555
-15 c0 -8 -2 -15 -4 -15 -2 0 -6 7 -10 15 -3 8 -1 15 4 15 6 0 10 -7 10 -15z
m1204 -22 c-4 -54 -6 -58 -14 -30 -9 28 -4 57 9 57 4 0 6 -12 5 -27z m-1251 4
c3 -8 -1 -14 -8 -14 -7 0 -11 6 -8 14 3 7 6 13 8 13 2 0 5 -6 8 -13z m4507 -7
c0 -5 -5 -10 -11 -10 -5 0 -7 5 -4 10 3 6 8 10 11 10 2 0 4 -4 4 -10z m42 3
c-6 -2 -10 -8 -7 -13 3 -4 -2 -10 -10 -14 -8 -3 -15 -2 -15 2 0 12 23 32 35
31 5 0 4 -3 -3 -6z m102 -8 c3 -9 0 -15 -8 -15 -7 0 -13 7 -13 15 0 8 4 15 8
15 4 0 9 -7 13 -15z m42 -14 c0 -11 -4 -17 -8 -15 -4 3 -8 12 -8 20 0 8 4 14
8 14 4 0 8 -9 8 -19z m-576 -21 c0 -5 -8 -10 -17 -10 -15 0 -16 2 -3 10 19 12
20 12 20 0z m485 0 c-3 -5 -11 -10 -16 -10 -6 0 -7 5 -4 10 3 6 11 10 16 10 6
0 7 -4 4 -10z m-2905 -30 c0 -5 -2 -10 -4 -10 -3 0 -8 5 -11 10 -3 6 -1 10 4
10 6 0 11 -4 11 -10z m-427 -50 c-7 -8 -22 24 -16 34 4 5 10 1 13 -10 4 -10 6
-21 3 -24z m71 11 c3 -4 3 -11 0 -14 -8 -8 -34 3 -34 14 0 11 27 12 34 0z
m3422 -20 c-4 -5 -1 -11 6 -13 8 -3 6 -6 -4 -10 -11 -5 -15 -2 -13 10 5 23 4
22 11 22 3 0 3 -4 0 -9z m-878 -26 c-3 -3 -9 2 -12 12 -6 14 -5 15 5 6 7 -7
10 -15 7 -18z m237 -5 c9 -16 13 -30 11 -30 -3 0 -12 14 -21 30 -9 17 -13 30
-11 30 3 0 12 -13 21 -30z m660 -10 c3 -6 -4 -10 -17 -10 -18 0 -20 2 -8 10
19 12 18 12 25 0z m-870 -9 c3 -5 1 -12 -4 -15 -5 -3 -11 1 -15 9 -6 16 9 21
19 6z m-2661 -52 c-9 -16 -21 -1 -18 23 4 34 4 35 15 10 5 -13 6 -28 3 -33z
m2946 45 c0 -8 -19 -13 -24 -6 -3 5 1 9 9 9 8 0 15 -2 15 -3z m97 -16 c-3 -8
-6 -5 -6 6 -1 11 2 17 5 13 3 -3 4 -12 1 -19z m-362 -8 c3 -5 1 -10 -4 -10 -6
0 -11 5 -11 10 0 6 2 10 4 10 3 0 8 -4 11 -10z m139 2 c3 -5 -1 -9 -9 -9 -8 0
-15 4 -15 9 0 4 4 8 9 8 6 0 12 -4 15 -8z m106 -34 c0 -13 -17 -9 -30 7 -9 11
-9 15 -1 15 7 0 9 6 6 13 -4 6 1 3 9 -7 9 -11 16 -23 16 -28z m-1648 10 c-7
-7 -12 -8 -12 -2 0 14 12 26 19 19 2 -3 -1 -11 -7 -17z m1505 15 c-4 -3 -2
-11 3 -18 7 -8 5 -12 -5 -12 -8 0 -15 6 -15 12 0 12 10 25 18 25 3 0 2 -3 -1
-7z m-74 -18 c-3 -9 -8 -14 -10 -11 -3 3 -2 9 2 15 9 16 15 13 8 -4z m164 -17
c-3 -8 -6 -5 -6 6 -1 11 2 17 5 13 3 -3 4 -12 1 -19z m607 3 c10 -10 13 -21 8
-24 -8 -5 -42 26 -42 38 0 11 18 4 34 -14z m-909 -57 c-5 -7 -14 -9 -20 -6 -5
3 -4 7 3 10 7 2 12 8 12 13 0 6 -4 8 -9 5 -5 -4 -7 3 -4 15 5 20 6 20 17 -3 8
-16 9 -26 1 -34z m820 38 c-3 -3 -11 0 -18 7 -9 10 -8 11 6 5 10 -3 15 -9 12
-12z m-749 -19 c-10 -10 -19 5 -10 18 6 11 8 11 12 0 2 -7 1 -15 -2 -18z m101
21 c-3 -3 -12 -4 -19 -1 -8 3 -5 6 6 6 11 1 17 -2 13 -5z m-2757 -19 c0 -8 -4
-15 -9 -15 -13 0 -22 16 -14 24 11 11 23 6 23 -9z m2527 -17 c-3 -7 -5 -2 -5
12 0 14 2 19 5 13 2 -7 2 -19 0 -25z m-1563 -4 c3 -8 2 -12 -4 -9 -6 3 -10 10
-10 16 0 14 7 11 14 -7z m1936 12 c0 -3 -4 -8 -10 -11 -5 -3 -10 -1 -10 4 0 6
5 11 10 11 6 0 10 -2 10 -4z m-417 -34 c15 -17 15 -18 -6 -19 -12 0 -16 1 -9
4 10 4 10 8 1 19 -17 20 -5 17 14 -4z m897 -2 c-24 -15 -36 -11 -14 4 10 8 21
12 24 10 2 -3 -2 -9 -10 -14z m-55 0 c3 -6 -1 -7 -9 -4 -18 7 -21 14 -7 14 6
0 13 -4 16 -10z m-598 -52 c-3 -7 -5 -2 -5 12 0 14 2 19 5 13 2 -7 2 -19 0
-25z m-268 -18 c9 -27 8 -30 -12 -30 -16 0 -18 3 -9 12 17 17 15 33 -2 19 -11
-9 -16 -9 -22 0 -4 8 -3 9 5 5 6 -4 14 0 17 8 8 22 10 20 23 -14z m259 -12
c-6 -3 -18 -3 -27 0 -10 4 -11 7 -3 10 7 2 12 11 12 20 0 13 3 12 14 -4 10
-13 11 -21 4 -26z m592 21 c0 -6 -4 -7 -10 -4 -5 3 -10 11 -10 16 0 6 5 7 10
4 6 -3 10 -11 10 -16z m-920 -24 c4 2 8 -7 8 -20 0 -20 -3 -23 -14 -14 -8 6
-13 23 -13 38 1 17 3 20 6 8 2 -9 8 -15 13 -12z m245 15 c3 -5 1 -10 -4 -10
-6 0 -11 5 -11 10 0 6 2 10 4 10 3 0 8 -4 11 -10z m135 -20 c9 -16 8 -18 -5
-14 -8 4 -15 12 -15 20 0 20 7 17 20 -6z m-410 -25 c7 -9 8 -15 2 -15 -5 0
-12 7 -16 15 -3 8 -4 15 -2 15 2 0 9 -7 16 -15z m153 -10 c-3 -9 -8 -14 -10
-11 -3 3 -2 9 2 15 9 16 15 13 8 -4z m-2503 -45 c0 -5 -2 -10 -4 -10 -3 0 -8
5 -11 10 -3 6 -1 10 4 10 6 0 11 -4 11 -10z m3010 6 c0 -2 -8 -10 -17 -17 -16
-13 -17 -12 -4 4 13 16 21 21 21 13z m-316 -14 c2 -4 1 -14 -3 -21 -6 -9 -10
-7 -14 8 -5 20 7 29 17 13z m-4121 -32 c15 -25 16 -29 2 -24 -8 3 -15 12 -15
20 0 7 -8 18 -17 23 -15 8 -15 10 -3 11 9 0 24 -13 33 -30z m2307 26 c0 -3 -4
-8 -10 -11 -5 -3 -10 -1 -10 4 0 6 5 11 10 11 6 0 10 -2 10 -4z m-1440 -16 c0
-5 -2 -10 -4 -10 -3 0 -8 5 -11 10 -3 6 -1 10 4 10 6 0 11 -4 11 -10z m3336
-22 c-1 -12 -9 -24 -16 -26 -9 -3 -11 1 -5 14 4 11 8 24 8 31 0 7 4 10 9 7 4
-3 6 -15 4 -26z m189 22 c3 -6 -1 -7 -9 -4 -18 7 -21 14 -7 14 6 0 13 -4 16
-10z m-2355 -21 c0 -6 -4 -7 -10 -4 -5 3 -10 11 -10 16 0 6 5 7 10 4 6 -3 10
-11 10 -16z m1720 5 c0 -8 -4 -12 -10 -9 -5 3 -10 10 -10 16 0 5 5 9 10 9 6 0
10 -7 10 -16z m840 1 c0 -8 -2 -15 -4 -15 -2 0 -6 7 -10 15 -3 8 -1 15 4 15 6
0 10 -7 10 -15z m-3750 -5 c0 -5 -5 -10 -11 -10 -5 0 -7 5 -4 10 3 6 8 10 11
10 2 0 4 -4 4 -10z m3224 3 c-5 -5 -12 -12 -16 -18 -4 -6 -8 -2 -8 8 0 9 7 17
17 17 9 0 12 -3 7 -7z m93 -25 c-3 -7 -5 -2 -5 12 0 14 2 19 5 13 2 -7 2 -19
0 -25z m-23 5 c4 -10 4 -14 0 -10 -10 10 -35 -13 -27 -26 4 -6 0 -8 -10 -4 -9
3 -19 2 -23 -4 -4 -7 -10 -6 -19 1 -10 8 -14 7 -18 -2 -4 -8 -6 -7 -6 5 -1 13
7 17 34 17 24 0 37 6 45 20 13 24 16 25 24 3z m291 -2 c3 -5 2 -12 -3 -15 -5
-3 -9 1 -9 9 0 17 3 19 12 6z m-2908 -16 c0 -17 -13 -20 -21 -6 -4 5 0 12 6
14 7 3 13 6 14 6 0 1 1 -6 1 -14z m2197 -1 c6 -15 4 -15 -11 -3 -15 13 -16 12
-11 -8 7 -25 -6 -32 -15 -9 -5 13 10 36 24 36 4 0 10 -7 13 -16z m886 1 c-7
-9 -15 -13 -19 -10 -3 3 1 10 9 15 21 14 24 12 10 -5z m-785 -5 c-3 -5 -10
-10 -16 -10 -5 0 -9 5 -9 10 0 6 7 10 16 10 8 0 12 -4 9 -10z m410 0 c3 -6 -1
-7 -9 -4 -18 7 -21 14 -7 14 6 0 13 -4 16 -10z m543 -9 c12 -10 19 -21 15 -25
-10 -10 -25 -7 -18 4 3 6 2 10 -3 10 -6 0 -12 7 -16 15 -7 19 -4 19 22 -4z
m-4688 -11 c6 -11 9 -20 7 -20 -2 0 -12 9 -22 20 -10 11 -13 20 -7 20 6 0 16
-9 22 -20z m1342 -2 c-7 -7 -12 -8 -12 -2 0 14 12 26 19 19 2 -3 -1 -11 -7
-17z m2728 2 c0 -5 -7 -7 -15 -4 -8 4 -12 10 -9 15 6 11 24 2 24 -11z m397 13
c-4 -3 -2 -12 4 -20 14 -16 -3 -17 -19 -1 -9 9 -12 9 -12 0 0 -6 -7 -9 -15 -6
-8 4 -15 10 -15 16 0 5 4 6 10 3 5 -3 18 -1 27 4 21 12 29 14 20 4z m-264 -54
c-6 -6 -7 3 -4 23 4 28 6 29 9 9 2 -13 0 -27 -5 -32z m-3003 17 c0 -7 -11 -16
-25 -18 -19 -4 -25 -1 -25 13 0 14 7 19 25 19 15 0 25 -6 25 -14z m2751 -3 c8
-9 9 -14 2 -10 -6 4 -14 1 -16 -5 -3 -7 -6 -3 -6 10 -1 26 2 27 20 5z m-39
-18 c3 -14 1 -28 -5 -32 -5 -3 -7 -1 -3 5 3 5 1 12 -5 14 -5 2 -7 11 -4 21 9
23 12 22 17 -8z m258 16 c0 -5 -11 -11 -25 -13 -14 -3 -25 -3 -25 -1 0 3 34
19 48 22 1 1 2 -3 2 -8z m256 -3 c4 -6 3 -8 -3 -5 -6 4 -13 0 -17 -8 -3 -8 0
-15 6 -15 6 0 8 -3 5 -6 -4 -4 -13 -2 -20 4 -8 7 -16 11 -18 9 -3 -1 4 6 14
16 23 20 24 20 33 5z m-4372 -30 c-4 -6 -10 -5 -15 3 -14 22 -10 33 6 19 8 -7
12 -17 9 -22z m4741 22 c3 -5 1 -10 -4 -10 -6 0 -11 5 -11 10 0 6 2 10 4 10 3
0 8 -4 11 -10z m-330 -18 c-3 -3 -11 0 -18 7 -9 10 -8 11 6 5 10 -3 15 -9 12
-12z m-625 -1 c0 -6 -4 -12 -8 -15 -5 -3 -9 1 -9 9 0 8 4 15 9 15 4 0 8 -4 8
-9z m310 -6 c0 -8 -4 -15 -10 -15 -5 0 -7 7 -4 15 4 8 8 15 10 15 2 0 4 -7 4
-15z m-4145 -13 c-3 -3 -11 0 -18 7 -9 10 -8 11 6 5 10 -3 15 -9 12 -12z m765
-7 c0 -8 -7 -15 -15 -15 -9 0 -12 6 -9 15 4 8 10 15 15 15 5 0 9 -7 9 -15z
m1450 5 c0 -5 -4 -10 -10 -10 -5 0 -10 5 -10 10 0 6 5 10 10 10 6 0 10 -4 10
-10z m1627 -32 c-3 -8 -6 -5 -6 6 -1 11 2 17 5 13 3 -3 4 -12 1 -19z m523 2
c0 -5 -7 -10 -16 -10 -8 0 -12 5 -9 10 3 6 10 10 16 10 5 0 9 -4 9 -10z
m-3590 -10 c0 -5 -5 -10 -11 -10 -5 0 -7 5 -4 10 3 6 8 10 11 10 2 0 4 -4 4
-10z m2750 6 c0 -3 -4 -8 -10 -11 -5 -3 -10 -1 -10 4 0 6 5 11 10 11 6 0 10
-2 10 -4z m960 -6 c0 -5 -5 -10 -11 -10 -5 0 -7 5 -4 10 3 6 8 10 11 10 2 0 4
-4 4 -10z"/>
<path d="M870 3790 c0 -5 5 -10 10 -10 6 0 10 5 10 10 0 6 -4 10 -10 10 -5 0
-10 -4 -10 -10z"/>
<path d="M680 3740 c0 -5 5 -10 11 -10 5 0 7 5 4 10 -3 6 -8 10 -11 10 -2 0
-4 -4 -4 -10z"/>
<path d="M480 3710 c0 -5 5 -10 10 -10 6 0 10 5 10 10 0 6 -4 10 -10 10 -5 0
-10 -4 -10 -10z"/>
<path d="M580 3710 c0 -5 5 -10 10 -10 6 0 10 5 10 10 0 6 -4 10 -10 10 -5 0
-10 -4 -10 -10z"/>
<path d="M1580 3779 c0 -5 5 -7 10 -4 6 3 10 8 10 11 0 2 -4 4 -10 4 -5 0 -10
-5 -10 -11z"/>
<path d="M1635 3769 c-4 -6 -5 -12 -2 -15 2 -3 7 2 10 11 7 17 1 20 -8 4z"/>
<path d="M1660 3726 c0 -2 7 -9 15 -16 9 -7 15 -8 15 -2 0 5 -7 12 -15 16 -8
3 -15 4 -15 2z"/>
<path d="M1710 3660 c0 -5 5 -10 10 -10 6 0 10 5 10 10 0 6 -4 10 -10 10 -5 0
-10 -4 -10 -10z"/>
<path d="M2060 3660 c-23 -6 -23 -7 -5 -12 11 -3 27 -9 36 -12 11 -5 18 -1 21
11 5 20 -8 23 -52 13z"/>
<path d="M1990 3580 c0 -5 5 -10 11 -10 5 0 7 5 4 10 -3 6 -8 10 -11 10 -2 0
-4 -4 -4 -10z"/>
<path d="M2030 3570 c0 -5 5 -10 10 -10 6 0 10 5 10 10 0 6 -4 10 -10 10 -5 0
-10 -4 -10 -10z"/>
<path d="M4295 3080 c-6 -9 1 -14 18 -11 7 1 11 -14 8 -36 -1 -7 3 -13 9 -13
13 0 13 11 0 44 -10 27 -24 33 -35 16z"/>
<path d="M860 3030 c-8 -26 -7 -41 2 -32 6 6 8 16 5 24 -3 7 -6 11 -7 8z"/>
<path d="M1051 3004 c0 -11 3 -14 6 -6 3 7 2 16 -1 19 -3 4 -6 -2 -5 -13z"/>
<path d="M735 2960 c-3 -6 1 -7 9 -4 18 7 21 14 7 14 -6 0 -13 -4 -16 -10z"/>
<path d="M900 2939 c0 -11 4 -18 10 -14 5 3 7 12 3 20 -7 21 -13 19 -13 -6z"/>
<path d="M805 2925 c-24 -11 -26 -14 -9 -15 11 0 29 7 40 15 24 18 9 18 -31 0z"/>
<path d="M890 2901 c0 -5 5 -13 10 -16 6 -3 10 -2 10 4 0 5 -4 13 -10 16 -5 3
-10 2 -10 -4z"/>
<path d="M764 2881 c5 -8 56 -3 56 5 0 2 -14 4 -31 4 -16 0 -28 -4 -25 -9z"/>
<path d="M3565 2701 c-6 -10 21 -41 36 -41 13 0 11 12 -5 33 -15 19 -22 21
-31 8z"/>
<path d="M1025 2510 c-3 -5 -1 -10 4 -10 6 0 11 5 11 10 0 6 -2 10 -4 10 -3 0
-8 -4 -11 -10z"/>
<path d="M748 2383 c10 -4 8 -9 -7 -20 -28 -19 -26 -31 3 -26 13 3 26 13 29
23 6 22 -1 30 -22 29 -12 0 -12 -2 -3 -6z"/>
<path d="M1935 2349 c-7 -10 -4 -14 73 -70 37 -26 43 -29 40 -13 -2 11 -13 20
-26 22 -12 2 -22 9 -22 16 0 13 -41 56 -53 56 -3 0 -9 -5 -12 -11z"/>
<path d="M4337 2179 c-4 -16 -3 -18 8 -9 10 8 14 7 18 -2 4 -9 6 -8 6 3 1 25
-26 31 -32 8z"/>
<path d="M4351 1833 c-1 -6 -4 -20 -7 -30 -5 -17 -5 -17 6 0 6 10 9 23 6 30
-3 9 -5 9 -5 0z"/>
<path d="M488 1593 c7 -3 16 -2 19 1 4 3 -2 6 -13 5 -11 0 -14 -3 -6 -6z"/>
<path d="M820 1550 c-13 -9 -13 -10 0 -10 8 0 22 5 30 10 13 9 13 10 0 10 -8
0 -22 -5 -30 -10z"/>
<path d="M241 1514 c0 -11 3 -14 6 -6 3 7 2 16 -1 19 -3 4 -6 -2 -5 -13z"/>
<path d="M276 1514 c-5 -14 -4 -15 9 -4 17 14 19 20 6 20 -5 0 -12 -7 -15 -16z"/>
<path d="M159 1493 c-13 -16 -12 -17 4 -4 9 7 17 15 17 17 0 8 -8 3 -21 -13z"/>
<path d="M2195 1091 c-3 -5 -1 -12 4 -15 5 -3 11 1 15 9 6 16 -9 21 -19 6z"/>
<path d="M1620 1068 c0 -12 3 -18 7 -14 11 10 12 36 2 36 -5 0 -9 -10 -9 -22z"/>
<path d="M1550 967 c0 -28 7 -37 24 -31 17 7 8 54 -10 54 -8 0 -14 -10 -14
-23z"/>
<path d="M5034 4657 c24 -35 54 -42 54 -11 0 18 -4 22 -12 14 -9 -6 -20 -4
-35 7 l-23 16 16 -26z"/>
<path d="M5056 4586 c4 -26 2 -27 -13 -15 -15 12 -16 12 -10 -4 4 -10 7 -23 7
-28 0 -20 16 -7 27 21 6 17 8 28 3 25 -5 -3 -11 3 -13 12 -2 10 -3 5 -1 -11z"/>
<path d="M4958 4603 c-22 -5 -23 -19 -3 -27 9 -3 15 0 15 9 0 11 8 13 29 9 16
-3 31 -2 34 2 5 10 -47 14 -75 7z"/>
<path d="M4988 4555 c-11 -13 -25 -22 -30 -19 -13 9 -9 -16 6 -31 17 -17 30
-7 15 11 -8 9 -5 15 10 23 14 8 21 8 24 -2 2 -6 4 0 3 15 0 16 -2 28 -4 28 -1
0 -12 -11 -24 -25z"/>
<path d="M5092 4520 c-6 -11 -12 -27 -12 -35 0 -8 -4 -15 -10 -15 -5 0 -10 5
-10 11 0 5 -5 7 -12 3 -8 -5 -9 -1 -4 12 5 15 4 16 -5 7 -6 -6 -18 -9 -25 -6
-8 3 -14 0 -14 -6 0 -6 7 -11 15 -11 9 0 18 -7 21 -15 4 -8 10 -12 15 -9 5 3
9 -1 9 -8 1 -9 5 -7 14 5 20 26 33 21 34 -14 2 -64 12 -39 12 29 0 74 -6 86
-28 52z"/>
<path d="M1290 4402 c0 -29 4 -52 9 -52 10 0 9 85 -1 96 -5 4 -8 -16 -8 -44z"/>
<path d="M4987 4428 c9 -10 19 -15 23 -13 4 3 13 -2 20 -10 10 -12 10 -18 -1
-32 -8 -9 -9 -14 -2 -10 14 9 28 -27 17 -44 -4 -8 -3 -9 4 -5 7 4 12 2 12 -3
0 -6 -5 -11 -11 -11 -5 0 -7 -5 -3 -11 5 -8 13 -4 24 11 15 19 18 20 23 6 9
-22 27 -20 27 3 0 15 -6 18 -31 15 -16 -2 -27 0 -24 5 3 5 1 12 -5 16 -5 3 -7
17 -4 31 4 15 2 24 -5 24 -7 0 -15 10 -20 22 -5 14 -17 22 -34 22 -24 2 -25 0
-10 -16z"/>
<path d="M5084 4422 c4 -6 -1 -23 -10 -37 -10 -15 -12 -25 -5 -25 6 0 14 -1
19 -2 11 -4 11 61 0 68 -7 4 -8 2 -4 -4z"/>
<path d="M4005 4380 c3 -5 8 -10 11 -10 2 0 4 5 4 10 0 6 -5 10 -11 10 -5 0
-7 -4 -4 -10z"/>
<path d="M3951 4364 c0 -11 3 -14 6 -6 3 7 2 16 -1 19 -3 4 -6 -2 -5 -13z"/>
<path d="M4730 4308 c-1 -7 -3 -30 -6 -50 -3 -21 -2 -38 3 -38 5 0 10 23 11
50 1 28 0 50 -3 50 -3 0 -5 -6 -5 -12z"/>
<path d="M4756 4282 c-2 -4 -1 -14 4 -22 7 -11 9 -9 7 8 -1 24 -3 26 -11 14z"/>
<path d="M5077 4283 c-4 -7 -3 -14 3 -18 19 -12 -17 -36 -45 -29 -22 5 -25 3
-25 -20 0 -20 -4 -24 -17 -19 -13 4 -11 0 4 -11 18 -14 21 -21 13 -41 -6 -15
-6 -25 0 -25 5 0 10 -10 12 -22 4 -24 8 -25 44 -14 19 6 21 3 16 -20 -3 -18
-7 -22 -13 -13 -4 8 -11 10 -16 6 -4 -5 -1 -12 7 -17 9 -6 19 -5 24 0 16 16
24 12 29 -12 3 -13 5 39 4 115 0 108 -3 137 -13 133 -7 -3 -14 0 -17 7 -2 8
-5 8 -10 0z m-27 -84 c0 -5 -4 -9 -8 -9 -5 0 -9 7 -9 15 0 8 4 12 9 9 4 -3 8
-9 8 -15z m3 -65 c-7 -3 -9 -12 -6 -20 3 -8 0 -14 -6 -14 -12 0 -15 23 -4 33
3 4 11 7 17 6 7 0 6 -2 -1 -5z"/>
<path d="M5031 4264 c0 -11 3 -14 6 -6 3 7 2 16 -1 19 -3 4 -6 -2 -5 -13z"/>
<path d="M4696 4221 c-3 -5 1 -14 9 -21 8 -7 15 -19 15 -26 0 -8 10 -14 25
-14 17 0 25 5 25 18 0 14 -2 15 -10 2 -9 -13 -11 -13 -19 0 -5 8 -7 18 -5 22
3 4 -4 8 -16 8 -12 0 -18 5 -15 10 3 6 4 10 1 10 -3 0 -7 -4 -10 -9z"/>
<path d="M1045 4210 c-4 -6 -14 -9 -23 -5 -9 3 -13 3 -9 -1 4 -4 2 -13 -5 -21
-19 -24 -3 -23 27 2 17 13 27 26 24 30 -4 3 -10 1 -14 -5z"/>
<path d="M300 4190 c0 -5 5 -10 11 -10 5 0 7 5 4 10 -3 6 -8 10 -11 10 -2 0
-4 -4 -4 -10z"/>
<path d="M4780 4169 c0 -8 28 -39 36 -39 3 0 0 8 -5 19 -6 10 -8 20 -6 23 3 3
-2 5 -10 5 -8 0 -15 -4 -15 -8z"/>
<path d="M940 4130 c-19 -16 -40 -30 -47 -30 -6 0 -14 -4 -18 -9 -7 -12 26 -7
52 7 23 13 69 62 57 62 -5 0 -25 -14 -44 -30z"/>
<path d="M895 4137 c-11 -8 -14 -16 -8 -20 6 -4 18 2 28 13 21 23 8 27 -20 7z"/>
<path d="M4161 4134 c0 -11 3 -14 6 -6 3 7 2 16 -1 19 -3 4 -6 -2 -5 -13z"/>
<path d="M4205 4140 c4 -6 11 -8 16 -5 14 9 11 15 -7 15 -8 0 -12 -5 -9 -10z"/>
<path d="M4235 4109 c-10 -15 3 -25 16 -12 7 7 7 13 1 17 -6 3 -14 1 -17 -5z"/>
<path d="M4120 4096 c0 -8 5 -18 12 -22 7 -5 9 -2 5 9 -3 9 -1 18 6 21 7 2 4
5 -5 5 -10 1 -18 -5 -18 -13z"/>
<path d="M4257 4093 c-11 -10 -8 -20 8 -27 10 -4 15 1 15 14 0 20 -11 26 -23
13z"/>
<path d="M4580 4079 c0 -4 8 -13 18 -18 14 -7 19 -6 19 4 0 7 -9 16 -19 18
-10 3 -18 1 -18 -4z"/>
<path d="M1141 4066 c-1 -11 -8 -28 -18 -38 -15 -17 -15 -18 5 -18 28 0 33 11
22 46 -5 19 -9 22 -9 10z"/>
<path d="M4969 4055 c-3 -11 -2 -29 2 -40 4 -11 8 -14 8 -7 1 7 5 11 10 8 5
-3 11 3 14 15 4 16 3 18 -8 9 -11 -9 -14 -6 -17 12 -3 21 -4 22 -9 3z"/>
<path d="M3921 4044 c0 -10 -2 -39 -5 -64 -4 -25 -3 -39 0 -32 3 6 11 9 17 6
8 -5 8 -2 0 7 -7 7 -13 20 -12 29 0 10 2 11 6 3 2 -7 10 -13 16 -13 8 0 7 4
-1 12 -14 14 -16 32 -3 24 13 -8 7 22 -7 36 -8 8 -11 6 -11 -8z"/>
<path d="M4221 4044 c0 -11 3 -14 6 -6 3 7 2 16 -1 19 -3 4 -6 -2 -5 -13z"/>
<path d="M1530 4016 c0 -2 8 -10 18 -17 15 -13 16 -12 3 4 -13 16 -21 21 -21
13z"/>
<path d="M4919 4018 c-6 -21 -5 -38 2 -38 5 0 9 2 9 4 0 2 3 11 6 20 3 9 1 16
-5 16 -6 0 -11 -1 -12 -2z"/>
<path d="M4621 3983 c0 -5 4 -17 9 -28 8 -18 9 -17 9 8 1 15 -3 27 -9 27 -5 0
-10 -3 -9 -7z"/>
<path d="M4975 3980 c3 -5 8 -10 11 -10 2 0 4 5 4 10 0 6 -5 10 -11 10 -5 0
-7 -4 -4 -10z"/>
<path d="M3883 3945 c-3 -9 -3 -18 -1 -21 3 -3 8 4 11 16 6 23 -1 27 -10 5z"/>
<path d="M3972 3946 c7 -8 15 -12 17 -11 5 6 -10 25 -20 25 -5 0 -4 -6 3 -14z"/>
<path d="M4970 3940 c0 -5 5 -10 10 -10 6 0 10 5 10 10 0 6 -4 10 -10 10 -5 0
-10 -4 -10 -10z"/>
<path d="M2305 3920 c-3 -5 -1 -10 4 -10 6 0 11 5 11 10 0 6 -2 10 -4 10 -3 0
-8 -4 -11 -10z"/>
<path d="M2397 3916 c-4 -10 -1 -13 9 -9 15 6 19 23 5 23 -5 0 -11 -7 -14 -14z"/>
<path d="M2371 3864 c-7 -8 -10 -18 -7 -22 8 -8 38 10 44 26 5 17 -21 14 -37
-4z"/>
<path d="M1766 3811 c-3 -5 1 -11 9 -14 9 -4 12 -1 8 9 -6 16 -10 17 -17 5z"/>
<path d="M2178 3783 c7 -3 16 -2 19 1 4 3 -2 6 -13 5 -11 0 -14 -3 -6 -6z"/>
<path d="M4407 3754 c6 -15 23 -19 23 -5 0 5 -7 11 -14 14 -10 4 -13 1 -9 -9z"/>
<path d="M2298 3753 c6 -2 18 -2 25 0 6 3 1 5 -13 5 -14 0 -19 -2 -12 -5z"/>
<path d="M4406 3713 c-6 -14 -5 -15 5 -6 7 7 10 15 7 18 -3 3 -9 -2 -12 -12z"/>
<path d="M3556 3678 c3 -4 12 -8 20 -8 8 0 14 -5 14 -11 0 -5 -6 -7 -12 -3
-10 6 -9 3 0 -8 8 -9 20 -14 28 -11 10 4 11 9 4 18 -5 6 -7 14 -4 17 3 3 -9 8
-25 10 -16 2 -28 1 -25 -4z"/>
<path d="M3546 3602 c-3 -6 -2 -13 4 -17 6 -4 8 -10 6 -14 -3 -4 1 -8 8 -8 16
0 15 22 -1 38 -7 7 -13 7 -17 1z"/>
<path d="M4150 3559 c-11 -15 -17 -16 -29 -6 -9 7 -7 1 4 -15 11 -15 26 -28
34 -28 11 0 10 4 -3 13 -17 13 -18 14 -2 20 9 4 15 3 12 -1 -6 -11 42 -67 50
-59 10 10 -5 58 -16 52 -5 -3 -8 0 -5 7 3 7 -3 18 -13 25 -15 9 -21 8 -32 -8z"/>
<path d="M4510 3551 c0 -5 5 -13 10 -16 6 -3 10 -2 10 4 0 5 -4 13 -10 16 -5
3 -10 2 -10 -4z"/>
<path d="M4477 3511 c-4 -17 -3 -21 5 -13 5 5 8 16 6 23 -3 8 -7 3 -11 -10z"/>
<path d="M4500 3521 c0 -6 4 -13 10 -16 6 -3 7 1 4 9 -7 18 -14 21 -14 7z"/>
<path d="M4498 3483 c7 -3 16 -2 19 1 4 3 -2 6 -13 5 -11 0 -14 -3 -6 -6z"/>
<path d="M3534 3458 l-19 -23 23 19 c21 18 27 26 19 26 -2 0 -12 -10 -23 -22z"/>
<path d="M4280 3362 c0 -4 9 -8 20 -8 11 0 20 4 20 8 0 4 -9 8 -20 8 -11 0
-20 -4 -20 -8z"/>
<path d="M3526 3323 c-6 -14 -5 -15 5 -6 7 7 10 15 7 18 -3 3 -9 -2 -12 -12z"/>
<path d="M4455 3320 c4 -6 11 -8 16 -5 14 9 11 15 -7 15 -8 0 -12 -5 -9 -10z"/>
<path d="M3411 2484 c0 -11 3 -14 6 -6 3 7 2 16 -1 19 -3 4 -6 -2 -5 -13z"/>
<path d="M3295 2400 c3 -5 11 -10 16 -10 6 0 7 5 4 10 -3 6 -11 10 -16 10 -6
0 -7 -4 -4 -10z"/>
<path d="M3215 1970 c3 -5 11 -10 16 -10 6 0 7 5 4 10 -3 6 -11 10 -16 10 -6
0 -7 -4 -4 -10z"/>
<path d="M3375 1971 c-3 -5 -2 -12 3 -15 5 -3 9 1 9 9 0 17 -3 19 -12 6z"/>
<path d="M3071 1609 c-6 -18 -11 -35 -11 -38 1 -11 24 34 27 52 5 27 -4 20
-16 -14z"/>
<path d="M3360 1515 c0 -9 6 -12 15 -9 8 4 15 10 15 15 0 5 -7 9 -15 9 -8 0
-15 -7 -15 -15z"/>
<path d="M3380 1492 c0 -6 -8 -13 -17 -15 -16 -4 -16 -5 -1 -6 18 -1 34 16 24
26 -3 4 -6 1 -6 -5z"/>
<path d="M2421 1404 c0 -11 3 -14 6 -6 3 7 2 16 -1 19 -3 4 -6 -2 -5 -13z"/>
<path d="M3108 1283 c7 -3 16 -2 19 1 4 3 -2 6 -13 5 -11 0 -14 -3 -6 -6z"/>
<path d="M3136 1272 c-3 -5 1 -9 9 -9 8 0 12 4 9 9 -3 4 -7 8 -9 8 -2 0 -6 -4
-9 -8z"/>
<path d="M3100 1255 c0 -8 4 -15 10 -15 5 0 7 7 4 15 -4 8 -8 15 -10 15 -2 0
-4 -7 -4 -15z"/>
<path d="M2735 1240 c3 -5 10 -10 16 -10 5 0 9 5 9 10 0 6 -7 10 -16 10 -8 0
-12 -4 -9 -10z"/>
<path d="M2750 1210 c0 -5 5 -10 11 -10 5 0 7 5 4 10 -3 6 -8 10 -11 10 -2 0
-4 -4 -4 -10z"/>
<path d="M1526 23 c-9 -23 1 -28 18 -10 13 13 13 16 2 20 -8 3 -17 -1 -20 -10z"/>
</g>
</svg>
